<?xml version="1.0" ?><!DOCTYPE svg  PUBLIC '-//W3C//DTD SVG 1.1//EN'  'http://www.w3.org/Graphics/SVG/1.1/DTD/svg11.dtd'><svg enable-background="new 0 0 24 24" height="24px" id="Layer_1" version="1.1" viewBox="0 0 24 24" width="24px" xml:space="preserve" xmlns="http://www.w3.org/2000/svg" xmlns:xlink="http://www.w3.org/1999/xlink"><path d="M23.3,9.7c-0.2-0.7-0.4-1.5-0.7-2.2c-0.3-0.7-0.6-1.3-1.1-2c-0.4-0.6-0.9-1.2-1.4-1.7c-0.5-0.5-1.1-1-1.7-1.4  c-0.6-0.4-1.3-0.8-2-1.1c-0.7-0.3-1.4-0.5-2.2-0.7c-1.5-0.3-3.1-0.3-4.6,0C9,0.9,8.2,1.1,7.5,1.4C6.8,1.7,6.2,2,5.6,2.5  C5,2.9,4.4,3.3,3.9,3.9C3.3,4.4,2.9,5,2.5,5.6C2,6.2,1.7,6.8,1.4,7.5C1.1,8.2,0.9,8.9,0.7,9.7c-0.2,0.8-0.2,1.5-0.2,2.3  c0,0.8,0.1,1.6,0.2,2.3c0.2,0.7,0.4,1.5,0.7,2.2c0.3,0.7,0.6,1.3,1.1,2c0.4,0.6,0.9,1.2,1.4,1.7c0.5,0.5,1.1,1,1.7,1.4  c0.6,0.4,1.3,0.8,2,1.1c0.7,0.3,1.4,0.5,2.2,0.7c0.8,0.2,1.5,0.2,2.3,0.2s1.6-0.1,2.3-0.2c0.7-0.2,1.5-0.4,2.2-0.7  c0.7-0.3,1.3-0.6,2-1.1c0.6-0.4,1.2-0.9,1.7-1.4c0.5-0.5,1-1.1,1.4-1.7c0.4-0.6,0.8-1.3,1.1-2c0.3-0.7,0.5-1.4,0.7-2.2  c0.2-0.8,0.2-1.5,0.2-2.3C23.5,11.2,23.4,10.4,23.3,9.7z M13.1,7.9c3.4-1.3,4.7-3.2,4.7-3.2c0.1-0.2,0.4-0.3,0.7-0.1  c0.2,0.1,0.3,0.4,0.2,0.7c0,0-1.4,2.2-5.2,3.6c-0.1,0-0.1,0-0.2,0c-0.2,0-0.4-0.1-0.5-0.3C12.7,8.3,12.9,8,13.1,7.9z M9.6,2.4  C9.6,2.4,9.7,2.4,9.6,2.4c0.3-0.1,0.5,0,0.6,0.2c0,0,1.2,1.5,2.5,3.7c0.1,0.2,0.1,0.5-0.2,0.7C12.4,7,12.3,7,12.2,7  c-0.2,0-0.3-0.1-0.4-0.2c-1-1.7-2-3-2.3-3.4C9.4,3.3,9.3,3.1,9.2,3C9.2,2.7,9.3,2.5,9.6,2.4z M3,10.5c-0.1,0-0.2,0-0.2,0  c-0.3,0-0.5-0.2-0.5-0.5c0-0.3,0.3-0.5,0.5-0.5c0.4,0,4.2,0,8.6-1.1c0.3-0.1,0.5,0.1,0.6,0.3C12,9,11.9,9.3,11.6,9.4  C7.5,10.5,3.9,10.5,3,10.5z M12.8,12.5c-4.6,1.5-7.1,5.5-7.4,6c0,0.1-0.1,0.1-0.1,0.1c-0.1,0.1-0.2,0.1-0.3,0.1  c-0.1,0-0.2,0-0.3-0.1c-0.2-0.2-0.2-0.4-0.1-0.6c0.1-0.2,2.7-4.8,7.9-6.4c0.1,0,0.3-0.1,0.4-0.1c0.3-0.1,0.5,0.1,0.6,0.3  s-0.1,0.5-0.3,0.6C13,12.5,12.9,12.5,12.8,12.5z M15.8,21.1C15.7,21.1,15.7,21.1,15.8,21.1c-0.3,0-0.5-0.2-0.6-0.4  c-0.1-0.8-0.7-3.6-2-7c-0.1-0.3,0-0.5,0.3-0.6c0.3-0.1,0.5,0,0.6,0.3c1.3,3.5,1.9,6.4,2,7.2C16.2,20.8,16,21.1,15.8,21.1z M21.9,12  c-0.1,0.2-0.3,0.4-0.5,0.4c0,0-0.1,0-0.1,0c0,0-3.2-0.7-6.4-0.3c-0.3,0-0.5-0.2-0.5-0.4c0-0.3,0.2-0.5,0.4-0.5  c3.4-0.4,6.7,0.3,6.7,0.3C21.8,11.5,21.9,11.7,21.9,12z"/></svg>