<?xml version="1.0" encoding="UTF-8"?>
<svg width="200px" height="50px" viewBox="0 0 200 50" version="1.1" xmlns="http://www.w3.org/2000/svg" xmlns:xlink="http://www.w3.org/1999/xlink">
    <title>Logo 200x50 white</title>
    <g id="Logo-200x50-white" stroke="none" stroke-width="1" fill="none" fill-rule="evenodd">
        <g id="Logo-200x50" transform="translate(0.000000, 5.500000)">
            <path d="M53.0907868,26.6284811 L55.323296,20.5875738 L59.2731201,20.5875738 L61.4652219,26.6284811 L63.36437,26.6284811 L58.1013053,12.0919165 L56.5153145,12.0919165 L51.1815368,26.6284811 L53.0907868,26.6284811 Z M58.6973145,19.0116849 L55.8991016,19.0116849 L57.303259,15.1527776 L58.6973145,19.0116849 Z M66.223194,26.6284811 L66.223194,19.7390183 C66.317478,19.5235121 66.4824749,19.2979041 66.7181848,19.0621942 C67.1289934,18.6715893 67.6037804,18.4762868 68.1425459,18.4762868 C68.6880459,18.4762868 69.1729347,18.6833748 69.5972125,19.0975507 C70.0214903,19.5117266 70.2336292,20.031972 70.2336292,20.6582868 L70.2336292,20.6582868 L70.2336292,26.6284811 L72.0519625,26.6284811 L72.0519625,20.577472 C72.0384933,19.5470831 71.6748267,18.6749565 70.9609625,17.9610924 C70.2470983,17.2472282 69.3076261,16.8902961 68.1425459,16.8902961 C67.1727681,16.8902961 66.5329842,17.0586603 66.223194,17.3953887 L66.223194,17.3953887 L64.3947589,17.3953887 L64.3947589,26.6284811 L66.223194,26.6284811 Z M79.032342,26.8709256 C80.5072124,26.8709256 81.6049469,26.2513453 82.3255457,25.0121849 L82.3255457,25.0121849 L82.3255457,26.6284811 L84.1539808,26.6284811 L84.1539808,12.0919165 L82.3255457,12.0919165 L82.3255457,18.4762868 C81.6049469,17.2505955 80.5072124,16.6377498 79.032342,16.6377498 C77.5709408,16.6377498 76.333464,17.1428424 75.3199115,18.1530275 C74.3063591,19.1632127 73.7995828,20.3653331 73.7995828,21.7593886 C73.7995828,23.139975 74.3063591,24.3370444 75.3199115,25.3505969 C76.333464,26.3641493 77.5709408,26.8709256 79.032342,26.8709256 Z M79.032342,25.2344256 C78.1231754,25.2344256 77.3352309,24.9010645 76.6685087,24.2343423 C76.0017865,23.5676201 75.6684254,22.7426355 75.6684254,21.7593886 C75.6684254,20.7694071 76.0017865,19.937688 76.6685087,19.2642312 C77.3352309,18.5907744 78.1231754,18.2540461 79.032342,18.2540461 C79.9347741,18.2540461 80.7260858,18.597509 81.4062772,19.2844349 C81.8911661,19.7693238 82.1975889,20.3451294 82.3255457,21.0118516 L82.3255457,21.0118516 L82.3255457,22.4867219 C82.1975889,23.1534441 81.8911661,23.7292497 81.4062772,24.2141386 C80.7260858,24.8943299 79.9347741,25.2344256 79.032342,25.2344256 Z M87.6593234,26.6284811 L87.6593234,21.7795923 C87.6593234,20.9714442 87.8882987,20.299671 88.3462493,19.7642729 C88.8041999,19.2288747 89.4507184,18.8971973 90.2858048,18.7692405 L90.2858048,18.7692405 L89.3968419,17.2034535 C88.5078789,17.4863053 87.9287061,17.9880306 87.6593234,18.7086294 L87.6593234,18.7086294 L87.6593234,17.3953887 L85.8308882,17.3953887 L85.8308882,26.6284811 L87.6593234,26.6284811 Z M96.5691566,26.8709256 C98.0440269,26.8709256 99.2932893,26.3557311 100.316944,25.3253423 C100.653672,24.9953484 100.949993,24.6148454 101.205907,24.183833 L101.205907,24.183833 L99.4885917,23.5777219 C99.219209,23.9077157 99.0373757,24.1198546 98.9430918,24.2141386 C98.2629004,24.8943299 97.4715887,25.2344256 96.5691566,25.2344256 C95.6599899,25.2344256 94.8720455,24.9010645 94.2053233,24.2343423 C93.5386011,23.5676201 93.20524,22.7426355 93.20524,21.7593886 L93.20524,21.7593886 L93.20524,21.729083 L101.640286,21.729083 C101.640286,20.2474781 101.199172,19.0621942 100.316944,18.1732312 C99.2932893,17.1495769 98.0440269,16.6377498 96.5691566,16.6377498 C95.1077554,16.6377498 93.8702785,17.1428424 92.8567261,18.1530275 C91.8431736,19.1632127 91.3363974,20.3653331 91.3363974,21.7593886 C91.3363974,23.139975 91.8431736,24.3370444 92.8567261,25.3505969 C93.8702785,26.3641493 95.1077554,26.8709256 96.5691566,26.8709256 Z M99.5795084,20.1329905 L93.5284992,20.1329905 C93.9729807,18.8803609 94.9865332,18.2540461 96.5691566,18.2540461 C98.1450455,18.2540461 99.1484961,18.8803609 99.5795084,20.1329905 L99.5795084,20.1329905 Z M107.762008,26.8709256 C109.236879,26.8709256 110.486141,26.3557311 111.509795,25.3253423 C111.846524,24.9953484 112.142845,24.6148454 112.398758,24.183833 L112.398758,24.183833 L110.681443,23.5777219 C110.412061,23.9077157 110.230227,24.1198546 110.135943,24.2141386 C109.455752,24.8943299 108.66444,25.2344256 107.762008,25.2344256 C106.852842,25.2344256 106.064897,24.9010645 105.398175,24.2343423 C104.731453,23.5676201 104.398092,22.7426355 104.398092,21.7593886 L104.398092,21.7593886 L104.398092,21.729083 L112.833138,21.729083 C112.833138,20.2474781 112.392024,19.0621942 111.509795,18.1732312 C110.486141,17.1495769 109.236879,16.6377498 107.762008,16.6377498 C106.300607,16.6377498 105.06313,17.1428424 104.049578,18.1530275 C103.036025,19.1632127 102.529249,20.3653331 102.529249,21.7593886 C102.529249,23.139975 103.036025,24.3370444 104.049578,25.3505969 C105.06313,26.3641493 106.300607,26.8709256 107.762008,26.8709256 Z M110.77236,20.1329905 L104.721351,20.1329905 C105.165832,18.8803609 106.179385,18.2540461 107.762008,18.2540461 C109.337897,18.2540461 110.341348,18.8803609 110.77236,20.1329905 L110.77236,20.1329905 Z M119.177101,26.8709256 C120.651971,26.8709256 121.749706,26.2513453 122.470304,25.0121849 L122.470304,25.0121849 L122.470304,26.6284811 L124.29874,26.6284811 L124.29874,17.3953887 L122.470304,17.3953887 L122.470304,18.4762868 C121.749706,17.2505955 120.651971,16.6377498 119.177101,16.6377498 C117.7157,16.6377498 116.478223,17.1428424 115.46467,18.1530275 C114.451118,19.1632127 113.944342,20.3653331 113.944342,21.7593886 C113.944342,23.139975 114.451118,24.3370444 115.46467,25.3505969 C116.478223,26.3641493 117.7157,26.8709256 119.177101,26.8709256 Z M119.177101,25.2344256 C118.267934,25.2344256 117.47999,24.9010645 116.813267,24.2343423 C116.146545,23.5676201 115.813184,22.7426355 115.813184,21.7593886 C115.813184,20.7694071 116.146545,19.937688 116.813267,19.2642312 C117.47999,18.5907744 118.267934,18.2540461 119.177101,18.2540461 C120.079533,18.2540461 120.870845,18.597509 121.551036,19.2844349 C122.035925,19.7693238 122.342348,20.3451294 122.470304,21.0118516 L122.470304,21.0118516 L122.470304,22.4867219 C122.342348,23.1534441 122.035925,23.7292497 121.551036,24.2141386 C120.870845,24.8943299 120.079533,25.2344256 119.177101,25.2344256 Z M138.623165,26.7901108 C140.589659,26.7901108 142.391156,26.045941 144.027656,24.5576015 L144.027656,24.5576015 L142.754823,23.4261941 C141.421378,24.6047435 140.044159,25.1940182 138.623165,25.1940182 C137.074215,25.1940182 135.735719,24.6316818 134.607679,23.5070089 C133.479639,22.3823361 132.915619,20.9983824 132.915619,19.3551479 C132.915619,17.7253825 133.479639,16.3464797 134.607679,15.2184396 C135.735719,14.0903995 137.074215,13.5263795 138.623165,13.5263795 C140.044159,13.5263795 141.421378,14.1156541 142.754823,15.2942035 L142.754823,15.2942035 L144.027656,14.1627961 C142.391156,12.6677221 140.589659,11.920185 138.623165,11.920185 C136.508511,11.920185 134.722167,12.6542529 133.264133,14.1223887 C131.806099,15.5905245 131.077082,17.3347775 131.077082,19.3551479 C131.077082,21.3957219 131.806099,23.1450259 133.264133,24.6030599 C134.722167,26.0610938 136.508511,26.7901108 138.623165,26.7901108 Z M150.644369,26.8709256 C152.119239,26.8709256 153.216974,26.2513453 153.937573,25.0121849 L153.937573,25.0121849 L153.937573,26.6284811 L155.766008,26.6284811 L155.766008,17.3953887 L153.937573,17.3953887 L153.937573,18.4762868 C153.216974,17.2505955 152.119239,16.6377498 150.644369,16.6377498 C149.182968,16.6377498 147.945491,17.1428424 146.931938,18.1530275 C145.918386,19.1632127 145.41161,20.3653331 145.41161,21.7593886 C145.41161,23.139975 145.918386,24.3370444 146.931938,25.3505969 C147.945491,26.3641493 149.182968,26.8709256 150.644369,26.8709256 Z M150.644369,25.2344256 C149.735202,25.2344256 148.947258,24.9010645 148.280536,24.2343423 C147.613813,23.5676201 147.280452,22.7426355 147.280452,21.7593886 C147.280452,20.7694071 147.613813,19.937688 148.280536,19.2642312 C148.947258,18.5907744 149.735202,18.2540461 150.644369,18.2540461 C151.546801,18.2540461 152.338113,18.597509 153.018304,19.2844349 C153.503193,19.7693238 153.809616,20.3451294 153.937573,21.0118516 L153.937573,21.0118516 L153.937573,22.4867219 C153.809616,23.1534441 153.503193,23.7292497 153.018304,24.2141386 C152.338113,24.8943299 151.546801,25.2344256 150.644369,25.2344256 Z M160.52398,26.6284811 L160.52398,18.9712775 L162.241295,18.9712775 L162.241295,17.3953887 L160.52398,17.3953887 L160.52398,13.8092313 L158.705647,13.8092313 L158.705647,17.3953887 L156.988332,17.3953887 L156.988332,18.9712775 L158.705647,18.9712775 L158.705647,26.6284811 L160.52398,26.6284811 Z M168.54485,26.8709256 C170.01972,26.8709256 171.117455,26.2513453 171.838054,25.0121849 L171.838054,25.0121849 L171.838054,26.6284811 L173.666489,26.6284811 L173.666489,17.3953887 L171.838054,17.3953887 L171.838054,18.4762868 C171.117455,17.2505955 170.01972,16.6377498 168.54485,16.6377498 C167.083449,16.6377498 165.845972,17.1428424 164.83242,18.1530275 C163.818867,19.1632127 163.312091,20.3653331 163.312091,21.7593886 C163.312091,23.139975 163.818867,24.3370444 164.83242,25.3505969 C165.845972,26.3641493 167.083449,26.8709256 168.54485,26.8709256 Z M168.54485,25.2344256 C167.635683,25.2344256 166.847739,24.9010645 166.181017,24.2343423 C165.514295,23.5676201 165.180933,22.7426355 165.180933,21.7593886 C165.180933,20.7694071 165.514295,19.937688 166.181017,19.2642312 C166.847739,18.5907744 167.635683,18.2540461 168.54485,18.2540461 C169.447282,18.2540461 170.238594,18.597509 170.918785,19.2844349 C171.403674,19.7693238 171.710097,20.3451294 171.838054,21.0118516 L171.838054,21.0118516 L171.838054,22.4867219 C171.710097,23.1534441 171.403674,23.7292497 170.918785,24.2141386 C170.238594,24.8943299 169.447282,25.2344256 168.54485,25.2344256 Z M177.394072,26.6284811 L177.394072,19.7390183 C177.488356,19.5235121 177.653353,19.2979041 177.889063,19.0621942 C178.299872,18.6715893 178.774659,18.4762868 179.313424,18.4762868 C179.858924,18.4762868 180.343813,18.6833748 180.768091,19.0975507 C181.192368,19.5117266 181.404507,20.031972 181.404507,20.6582868 L181.404507,20.6582868 L181.404507,26.6284811 L183.222841,26.6284811 L183.222841,20.577472 C183.209372,19.5470831 182.845705,18.6749565 182.131841,17.9610924 C181.417976,17.2472282 180.478504,16.8902961 179.313424,16.8902961 C178.343646,16.8902961 177.703862,17.0586603 177.394072,17.3953887 L177.394072,17.3953887 L175.565637,17.3953887 L175.565637,26.6284811 L177.394072,26.6284811 Z M190.20322,26.8709256 C191.678091,26.8709256 192.775825,26.2513453 193.496424,25.0121849 L193.496424,25.0121849 L193.496424,26.6284811 L195.324859,26.6284811 L195.324859,17.3953887 L193.496424,17.3953887 L193.496424,18.4762868 C192.775825,17.2505955 191.678091,16.6377498 190.20322,16.6377498 C188.741819,16.6377498 187.504342,17.1428424 186.49079,18.1530275 C185.477237,19.1632127 184.970461,20.3653331 184.970461,21.7593886 C184.970461,23.139975 185.477237,24.3370444 186.49079,25.3505969 C187.504342,26.3641493 188.741819,26.8709256 190.20322,26.8709256 Z M190.20322,25.2344256 C189.294054,25.2344256 188.506109,24.9010645 187.839387,24.2343423 C187.172665,23.5676201 186.839304,22.7426355 186.839304,21.7593886 C186.839304,20.7694071 187.172665,19.937688 187.839387,19.2642312 C188.506109,18.5907744 189.294054,18.2540461 190.20322,18.2540461 C191.105652,18.2540461 191.896964,18.597509 192.577155,19.2844349 C193.062044,19.7693238 193.368467,20.3451294 193.496424,21.0118516 L193.496424,21.0118516 L193.496424,22.4867219 C193.368467,23.1534441 193.062044,23.7292497 192.577155,24.2141386 C191.896964,24.8943299 191.105652,25.2344256 190.20322,25.2344256 Z M198.082665,26.7497034 C198.453066,26.7497034 198.761172,26.6301648 199.006984,26.3910876 C199.252796,26.1520105 199.375702,25.8809441 199.375702,25.5778886 C199.375702,25.274833 199.252796,25.0037666 199.006984,24.7646895 C198.761172,24.5256123 198.453066,24.4060738 198.082665,24.4060738 C197.698794,24.4060738 197.385637,24.5256123 197.143192,24.7646895 C196.900748,25.0037666 196.779526,25.274833 196.779526,25.5778886 C196.779526,25.8809441 196.900748,26.1520105 197.143192,26.3910876 C197.385637,26.6301648 197.698794,26.7497034 198.082665,26.7497034 Z" id="AndreeaCatana." fill="#FFFFFF" fill-rule="nonzero"></path>
            <circle id="Oval" fill="#FFFFFF" cx="19.3955553" cy="19.3955553" r="19.3955553"></circle>
            <path d="M21.6003226,8.512436 L21.6000042,13.33473 L21.6808252,13.2764914 C22.990724,12.3636803 24.6204533,11.8327456 26.40981,11.8327456 C28.4400591,11.8327456 30.4703083,12.6335173 31.9239274,13.9560461 L32.1375735,14.1583037 L30.6518003,16.010137 C29.55362,14.825825 27.981715,14.0937049 26.4528759,14.0937049 C24.2917897,14.0937049 22.4626788,15.2888164 21.6001657,17.0602828 L21.6001657,21.7255371 C22.4626788,23.5032696 24.2917897,24.709447 26.4528759,24.709447 C27.871517,24.709447 29.3283065,24.0990737 30.4462489,23.1117051 L30.6518003,22.9222125 L32.1591064,24.6017823 C30.6302673,26.1090885 28.4554398,27.078071 26.3236782,27.078071 C24.531518,27.078071 22.9026255,26.5279298 21.5998331,25.5847156 L21.6003226,30.3983806 L21.2471325,30.3983806 L21.2471325,8.512436 L21.6003226,8.512436 Z M17.8942786,8.39273 L17.8942786,30.2786746 L17.5410885,30.2786746 L17.5410042,20.0781258 L14.5806891,14.4691451 L8.03038392,26.9599357 L6.63200416,26.9599357 L13.8236715,13.2705339 L13.8236715,13.2600197 L14.5806891,11.8511258 L15.3061643,13.2179632 L17.5410042,17.4821258 L17.5410885,8.39273 L17.8942786,8.39273 Z M19.6812347,10.6304306 L19.6812347,28.9863842 L19.3280446,28.9863842 L19.3280446,10.6304306 L19.6812347,10.6304306 Z" id="Combined-Shape" fill="#202020" fill-rule="nonzero"></path>
        </g>
    </g>
</svg>