<?xml version="1.0" encoding="UTF-8"?>
<svg width="215px" height="50px" viewBox="0 0 215 50" version="1.1" xmlns="http://www.w3.org/2000/svg" xmlns:xlink="http://www.w3.org/1999/xlink">
    <title>Logo 200x50</title>
    <g id="Logo-200x50" stroke="none" stroke-width="1" fill="none" fill-rule="evenodd">
        <g transform="translate(0.000000, 3.500000)">
            <path d="M57.1608233,29.4562184 L59.6165834,22.8112204 L63.9613898,22.8112204 L66.3727019,29.4562184 L68.4617648,29.4562184 L62.6723936,13.4659973 L60.9278038,13.4659973 L55.0606483,29.4562184 L57.1608233,29.4562184 Z M63.3280037,21.0777426 L60.2499695,21.0777426 L61.7945427,16.8329445 L63.3280037,21.0777426 Z M71.6064712,29.4562184 L71.6064712,21.8778093 C71.7101836,21.6407525 71.8916802,21.3925836 72.150961,21.1333028 C72.6028505,20.7036374 73.1251163,20.4888046 73.7177582,20.4888046 C74.3178082,20.4888046 74.851186,20.7166014 75.3178915,21.1721949 C75.7845971,21.6277884 76.0179499,22.2000583 76.0179499,22.8890046 L76.0179499,22.8890046 L76.0179499,29.4562184 L78.0181165,29.4562184 L78.0181165,22.8001083 C78.0033005,21.6666806 77.6032671,20.7073414 76.8180165,19.9220908 C76.0327659,19.1368402 74.9993465,18.7442149 73.7177582,18.7442149 C72.6510027,18.7442149 71.9472404,18.9294155 71.6064712,19.2998167 L71.6064712,19.2998167 L69.5951925,19.2998167 L69.5951925,29.4562184 L71.6064712,29.4562184 Z M85.696534,29.7229073 C87.3188914,29.7229073 88.5263994,29.041369 89.319058,27.6782925 L89.319058,27.6782925 L89.319058,29.4562184 L91.3303367,29.4562184 L91.3303367,13.4659973 L89.319058,13.4659973 L89.319058,20.4888046 C88.5263994,19.1405442 87.3188914,18.4664139 85.696534,18.4664139 C84.0889927,18.4664139 82.7277681,19.0220158 81.6128604,20.1332195 C80.4979527,21.2444232 79.9404989,22.5667555 79.9404989,24.1002166 C79.9404989,25.6188617 80.4979527,26.935638 81.6128604,28.0505457 C82.7277681,29.1654534 84.0889927,29.7229073 85.696534,29.7229073 Z M85.696534,27.9227573 C84.6964507,27.9227573 83.8297118,27.5560601 83.0963174,26.8226657 C82.3629229,26.0892712 81.9962257,25.1817882 81.9962257,24.1002166 C81.9962257,23.011237 82.3629229,22.096346 83.0963174,21.3555435 C83.8297118,20.6147411 84.6964507,20.2443398 85.696534,20.2443398 C86.6892093,20.2443398 87.5596522,20.6221491 88.3078627,21.3777676 C88.8412404,21.9111454 89.1783056,22.5445315 89.319058,23.2779259 L89.319058,23.2779259 L89.319058,24.9002833 C89.1783056,25.6336777 88.8412404,26.2670638 88.3078627,26.8004416 C87.5596522,27.5486521 86.6892093,27.9227573 85.696534,27.9227573 Z M95.1862135,29.4562184 L95.1862135,24.1224407 C95.1862135,23.2334778 95.4380863,22.4945273 95.941832,21.9055893 C96.4455777,21.3166514 97.156748,20.9518062 98.0753431,20.8110537 L98.0753431,20.8110537 L97.0974839,19.088688 C96.1196246,19.399825 95.4825345,19.9517229 95.1862135,20.7443815 L95.1862135,20.7443815 L95.1862135,19.2998167 L93.1749348,19.2998167 L93.1749348,29.4562184 L95.1862135,29.4562184 Z M104.98703,29.7229073 C106.609387,29.7229073 107.983576,29.1561934 109.109596,28.0227657 C109.479997,27.6597724 109.80595,27.2412191 110.087455,26.7671055 L110.087455,26.7671055 L108.198409,26.1003833 C107.902088,26.4633765 107.702071,26.6967293 107.598359,26.8004416 C106.850148,27.5486521 105.979705,27.9227573 104.98703,27.9227573 C103.986947,27.9227573 103.120208,27.5560601 102.386813,26.8226657 C101.653419,26.0892712 101.286722,25.1817882 101.286722,24.1002166 L101.286722,24.1002166 L101.286722,24.0668805 L110.565273,24.0668805 C110.565273,22.4371151 110.080047,21.1333028 109.109596,20.1554435 C107.983576,19.0294238 106.609387,18.4664139 104.98703,18.4664139 C103.379489,18.4664139 102.018264,19.0220158 100.903356,20.1332195 C99.7884488,21.2444232 99.2309949,22.5667555 99.2309949,24.1002166 C99.2309949,25.6188617 99.7884488,26.935638 100.903356,28.0505457 C102.018264,29.1654534 103.379489,29.7229073 104.98703,29.7229073 Z M108.298417,22.3111787 L101.642307,22.3111787 C102.131237,20.9332861 103.246144,20.2443398 104.98703,20.2443398 C106.720508,20.2443398 107.824303,20.9332861 108.298417,22.3111787 L108.298417,22.3111787 Z M117.299167,29.7229073 C118.921524,29.7229073 120.295713,29.1561934 121.421733,28.0227657 C121.792134,27.6597724 122.118087,27.2412191 122.399592,26.7671055 L122.399592,26.7671055 L120.510546,26.1003833 C120.214225,26.4633765 120.014208,26.6967293 119.910496,26.8004416 C119.162285,27.5486521 118.291842,27.9227573 117.299167,27.9227573 C116.299084,27.9227573 115.432345,27.5560601 114.69895,26.8226657 C113.965556,26.0892712 113.598859,25.1817882 113.598859,24.1002166 L113.598859,24.1002166 L113.598859,24.0668805 L122.877409,24.0668805 C122.877409,22.4371151 122.392184,21.1333028 121.421733,20.1554435 C120.295713,19.0294238 118.921524,18.4664139 117.299167,18.4664139 C115.691626,18.4664139 114.330401,19.0220158 113.215493,20.1332195 C112.100586,21.2444232 111.543132,22.5667555 111.543132,24.1002166 C111.543132,25.6188617 112.100586,26.935638 113.215493,28.0505457 C114.330401,29.1654534 115.691626,29.7229073 117.299167,29.7229073 Z M120.610554,22.3111787 L113.954444,22.3111787 C114.443373,20.9332861 115.558281,20.2443398 117.299167,20.2443398 C119.032645,20.2443398 120.13644,20.9332861 120.610554,22.3111787 L120.610554,22.3111787 Z M129.855769,29.7229073 C131.478126,29.7229073 132.685634,29.041369 133.478293,27.6782925 L133.478293,27.6782925 L133.478293,29.4562184 L135.489571,29.4562184 L135.489571,19.2998167 L133.478293,19.2998167 L133.478293,20.4888046 C132.685634,19.1405442 131.478126,18.4664139 129.855769,18.4664139 C128.248227,18.4664139 126.887003,19.0220158 125.772095,20.1332195 C124.657187,21.2444232 124.099733,22.5667555 124.099733,24.1002166 C124.099733,25.6188617 124.657187,26.935638 125.772095,28.0505457 C126.887003,29.1654534 128.248227,29.7229073 129.855769,29.7229073 Z M129.855769,27.9227573 C128.855685,27.9227573 127.988946,27.5560601 127.255552,26.8226657 C126.522158,26.0892712 126.15546,25.1817882 126.15546,24.1002166 C126.15546,23.011237 126.522158,22.096346 127.255552,21.3555435 C127.988946,20.6147411 128.855685,20.2443398 129.855769,20.2443398 C130.848444,20.2443398 131.718887,20.6221491 132.467097,21.3777676 C133.000475,21.9111454 133.33754,22.5445315 133.478293,23.2779259 L133.478293,23.2779259 L133.478293,24.9002833 C133.33754,25.6336777 133.000475,26.2670638 132.467097,26.8004416 C131.718887,27.5486521 130.848444,27.9227573 129.855769,27.9227573 Z M151.24644,29.634011 C153.409583,29.634011 155.391229,28.8154243 157.191379,27.1782509 L157.191379,27.1782509 L155.791263,25.9337027 C154.324474,27.230107 152.809533,27.8783092 151.24644,27.8783092 C149.542594,27.8783092 148.070249,27.2597391 146.829405,26.022599 C145.588561,24.7854589 144.968139,23.2631099 144.968139,21.4555519 C144.968139,19.6628099 145.588561,18.1460169 146.829405,16.9051727 C148.070249,15.6643286 149.542594,15.0439066 151.24644,15.0439066 C152.809533,15.0439066 154.324474,15.6921087 155.791263,16.988513 L155.791263,16.988513 L157.191379,15.7439649 C155.391229,14.0993834 153.409583,13.2770927 151.24644,13.2770927 C148.92032,13.2770927 146.955341,14.0845674 145.351504,15.6995167 C143.747667,17.3144661 142.945748,19.2331445 142.945748,21.4555519 C142.945748,23.7001833 143.747667,25.6244177 145.351504,27.228255 C146.955341,28.8320923 148.92032,29.634011 151.24644,29.634011 Z M164.469764,29.7229073 C166.092121,29.7229073 167.299629,29.041369 168.092288,27.6782925 L168.092288,27.6782925 L168.092288,29.4562184 L170.103566,29.4562184 L170.103566,19.2998167 L168.092288,19.2998167 L168.092288,20.4888046 C167.299629,19.1405442 166.092121,18.4664139 164.469764,18.4664139 C162.862222,18.4664139 161.500998,19.0220158 160.38609,20.1332195 C159.271182,21.2444232 158.713728,22.5667555 158.713728,24.1002166 C158.713728,25.6188617 159.271182,26.935638 160.38609,28.0505457 C161.500998,29.1654534 162.862222,29.7229073 164.469764,29.7229073 Z M164.469764,27.9227573 C163.46968,27.9227573 162.602941,27.5560601 161.869547,26.8226657 C161.136152,26.0892712 160.769455,25.1817882 160.769455,24.1002166 C160.769455,23.011237 161.136152,22.096346 161.869547,21.3555435 C162.602941,20.6147411 163.46968,20.2443398 164.469764,20.2443398 C165.462439,20.2443398 166.332882,20.6221491 167.081092,21.3777676 C167.61447,21.9111454 167.951535,22.5445315 168.092288,23.2779259 L168.092288,23.2779259 L168.092288,24.9002833 C167.951535,25.6336777 167.61447,26.2670638 167.081092,26.8004416 C166.332882,27.5486521 165.462439,27.9227573 164.469764,27.9227573 Z M175.337336,29.4562184 L175.337336,21.0332945 L177.226382,21.0332945 L177.226382,19.2998167 L175.337336,19.2998167 L175.337336,15.3550436 L173.337169,15.3550436 L173.337169,19.2998167 L171.448123,19.2998167 L171.448123,21.0332945 L173.337169,21.0332945 L173.337169,29.4562184 L175.337336,29.4562184 Z M184.160293,29.7229073 C185.78265,29.7229073 186.990158,29.041369 187.782817,27.6782925 L187.782817,27.6782925 L187.782817,29.4562184 L189.794096,29.4562184 L189.794096,19.2998167 L187.782817,19.2998167 L187.782817,20.4888046 C186.990158,19.1405442 185.78265,18.4664139 184.160293,18.4664139 C182.552752,18.4664139 181.191527,19.0220158 180.076619,20.1332195 C178.961712,21.2444232 178.404258,22.5667555 178.404258,24.1002166 C178.404258,25.6188617 178.961712,26.935638 180.076619,28.0505457 C181.191527,29.1654534 182.552752,29.7229073 184.160293,29.7229073 Z M184.160293,27.9227573 C183.16021,27.9227573 182.293471,27.5560601 181.560076,26.8226657 C180.826682,26.0892712 180.459985,25.1817882 180.459985,24.1002166 C180.459985,23.011237 180.826682,22.096346 181.560076,21.3555435 C182.293471,20.6147411 183.16021,20.2443398 184.160293,20.2443398 C185.152968,20.2443398 186.023411,20.6221491 186.771622,21.3777676 C187.304999,21.9111454 187.642064,22.5445315 187.782817,23.2779259 L187.782817,23.2779259 L187.782817,24.9002833 C187.642064,25.6336777 187.304999,26.2670638 186.771622,26.8004416 C186.023411,27.5486521 185.152968,27.9227573 184.160293,27.9227573 Z M193.894437,29.4562184 L193.894437,21.8778093 C193.99815,21.6407525 194.179646,21.3925836 194.438927,21.1333028 C194.890817,20.7036374 195.413082,20.4888046 196.005724,20.4888046 C196.605774,20.4888046 197.139152,20.7166014 197.605858,21.1721949 C198.072563,21.6277884 198.305916,22.2000583 198.305916,22.8890046 L198.305916,22.8890046 L198.305916,29.4562184 L200.306082,29.4562184 L200.306082,22.8001083 C200.291266,21.6666806 199.891233,20.7073414 199.105983,19.9220908 C198.320732,19.1368402 197.287312,18.7442149 196.005724,18.7442149 C194.938969,18.7442149 194.235206,18.9294155 193.894437,19.2998167 L193.894437,19.2998167 L191.883159,19.2998167 L191.883159,29.4562184 L193.894437,29.4562184 Z M207.9845,29.7229073 C209.606857,29.7229073 210.814365,29.041369 211.607024,27.6782925 L211.607024,27.6782925 L211.607024,29.4562184 L213.618303,29.4562184 L213.618303,19.2998167 L211.607024,19.2998167 L211.607024,20.4888046 C210.814365,19.1405442 209.606857,18.4664139 207.9845,18.4664139 C206.376959,18.4664139 205.015734,19.0220158 203.900826,20.1332195 C202.785919,21.2444232 202.228465,22.5667555 202.228465,24.1002166 C202.228465,25.6188617 202.785919,26.935638 203.900826,28.0505457 C205.015734,29.1654534 206.376959,29.7229073 207.9845,29.7229073 Z M207.9845,27.9227573 C206.984417,27.9227573 206.117678,27.5560601 205.384283,26.8226657 C204.650889,26.0892712 204.284192,25.1817882 204.284192,24.1002166 C204.284192,23.011237 204.650889,22.096346 205.384283,21.3555435 C206.117678,20.6147411 206.984417,20.2443398 207.9845,20.2443398 C208.977175,20.2443398 209.847618,20.6221491 210.595829,21.3777676 C211.129206,21.9111454 211.466272,22.5445315 211.607024,23.2779259 L211.607024,23.2779259 L211.607024,24.9002833 C211.466272,25.6336777 211.129206,26.2670638 210.595829,26.8004416 C209.847618,27.5486521 208.977175,27.9227573 207.9845,27.9227573 Z" id="AndreeaCatana." fill="#202020" fill-rule="nonzero"></path>
            <circle id="Oval" fill="#202020" cx="21.3351108" cy="21.5" r="21.3351108"></circle>
            <path d="M23.9603548,9.72856877 L23.9602046,15.0328922 L24.0316212,14.9811079 C25.475447,13.9696226 27.2746196,13.3809093 29.250791,13.3809093 C31.4937749,13.3809093 33.7367589,14.2694344 35.3371404,15.7355478 L35.5513308,15.9390232 L33.9169803,17.9760399 C32.708982,16.6732967 30.9798865,15.8679645 29.2981635,15.8679645 C26.9213612,15.8679645 24.9096113,17.182153 23.9606524,19.1302348 L23.960605,24.2638512 C24.9095443,26.2188798 26.9213217,27.5452809 29.2981635,27.5452809 C30.8640871,27.5452809 32.4722659,26.8691995 33.7036701,25.7764362 L33.9169803,25.5793229 L35.5750171,27.4268497 C33.893294,29.0848865 31.5009838,30.1507673 29.156046,30.1507673 C27.1848873,30.1507673 25.3932833,29.5457454 23.9602905,28.5084196 L23.9603548,33.8031078 L23.5718457,33.8031078 L23.5718457,9.72856877 L23.9603548,9.72856877 Z M19.8837065,9.59689217 L19.8837065,33.6714312 L19.4951974,33.6714312 L19.4942046,22.4488922 L16.238758,16.2809488 L9.03342231,30.0208185 L7.49520457,30.0208185 L15.4060386,14.9624764 L15.4060386,14.9509109 L16.238758,13.4011276 L17.0367808,14.9046487 L19.4942046,19.5938922 L19.4951974,9.59689217 L19.8837065,9.59689217 Z M21.8493581,12.0583629 L21.8493581,32.2499118 L21.460849,32.2499118 L21.460849,12.0583629 L21.8493581,12.0583629 Z" id="Combined-Shape" fill="#FFFFFF" fill-rule="nonzero"></path>
        </g>
    </g>
</svg>