<?xml version="1.0" encoding="UTF-8"?>
<svg width="215px" height="50px" viewBox="0 0 215 50" version="1.1" xmlns="http://www.w3.org/2000/svg" xmlns:xlink="http://www.w3.org/1999/xlink">
    <title>Logo 200x50 white</title>
    <g id="Logo-200x50-white" stroke="none" stroke-width="1" fill="none" fill-rule="evenodd">
        <g id="Logo-200x50" transform="translate(0.000000, 3.500000)">
            <path d="M55.2212681,29.4562184 L57.6770283,22.8112204 L62.0218347,22.8112204 L64.4331467,29.4562184 L66.5222096,29.4562184 L60.7328384,13.4659973 L58.9882486,13.4659973 L53.1210932,29.4562184 L55.2212681,29.4562184 Z M61.3884486,21.0777426 L58.3104144,21.0777426 L59.8549875,16.8329445 L61.3884486,21.0777426 Z M69.6669161,29.4562184 L69.6669161,21.8778093 C69.7706284,21.6407525 69.952125,21.3925836 70.2114059,21.1333028 C70.6632954,20.7036374 71.1855611,20.4888046 71.7782031,20.4888046 C72.3782531,20.4888046 72.9116309,20.7166014 73.3783364,21.1721949 C73.845042,21.6277884 74.0783947,22.2000583 74.0783947,22.8890046 L74.0783947,22.8890046 L74.0783947,29.4562184 L76.0785614,29.4562184 L76.0785614,22.8001083 C76.0637453,21.6666806 75.663712,20.7073414 74.8784614,19.9220908 C74.0932108,19.1368402 73.0597914,18.7442149 71.7782031,18.7442149 C70.7114476,18.7442149 70.0076852,18.9294155 69.6669161,19.2998167 L69.6669161,19.2998167 L67.6556374,19.2998167 L67.6556374,29.4562184 L69.6669161,29.4562184 Z M83.7569789,29.7229073 C85.3793363,29.7229073 86.5868443,29.041369 87.3795029,27.6782925 L87.3795029,27.6782925 L87.3795029,29.4562184 L89.3907816,29.4562184 L89.3907816,13.4659973 L87.3795029,13.4659973 L87.3795029,20.4888046 C86.5868443,19.1405442 85.3793363,18.4664139 83.7569789,18.4664139 C82.1494375,18.4664139 80.788213,19.0220158 79.6733053,20.1332195 C78.5583976,21.2444232 78.0009438,22.5667555 78.0009438,24.1002166 C78.0009438,25.6188617 78.5583976,26.935638 79.6733053,28.0505457 C80.788213,29.1654534 82.1494375,29.7229073 83.7569789,29.7229073 Z M83.7569789,27.9227573 C82.7568955,27.9227573 81.8901567,27.5560601 81.1567622,26.8226657 C80.4233678,26.0892712 80.0566706,25.1817882 80.0566706,24.1002166 C80.0566706,23.011237 80.4233678,22.096346 81.1567622,21.3555435 C81.8901567,20.6147411 82.7568955,20.2443398 83.7569789,20.2443398 C84.7496542,20.2443398 85.6200971,20.6221491 86.3683075,21.3777676 C86.9016853,21.9111454 87.2387504,22.5445315 87.3795029,23.2779259 L87.3795029,23.2779259 L87.3795029,24.9002833 C87.2387504,25.6336777 86.9016853,26.2670638 86.3683075,26.8004416 C85.6200971,27.5486521 84.7496542,27.9227573 83.7569789,27.9227573 Z M93.2466584,29.4562184 L93.2466584,24.1224407 C93.2466584,23.2334778 93.4985312,22.4945273 94.0022769,21.9055893 C94.5060226,21.3166514 95.2171929,20.9518062 96.135788,20.8110537 L96.135788,20.8110537 L95.1579287,19.088688 C94.1800695,19.399825 93.5429794,19.9517229 93.2466584,20.7443815 L93.2466584,20.7443815 L93.2466584,19.2998167 L91.2353797,19.2998167 L91.2353797,29.4562184 L93.2466584,29.4562184 Z M103.047475,29.7229073 C104.669832,29.7229073 106.044021,29.1561934 107.170041,28.0227657 C107.540442,27.6597724 107.866395,27.2412191 108.1479,26.7671055 L108.1479,26.7671055 L106.258854,26.1003833 C105.962533,26.4633765 105.762516,26.6967293 105.658804,26.8004416 C104.910593,27.5486521 104.04015,27.9227573 103.047475,27.9227573 C102.047392,27.9227573 101.180653,27.5560601 100.447258,26.8226657 C99.7138638,26.0892712 99.3471666,25.1817882 99.3471666,24.1002166 L99.3471666,24.1002166 L99.3471666,24.0668805 L108.625717,24.0668805 C108.625717,22.4371151 108.140492,21.1333028 107.170041,20.1554435 C106.044021,19.0294238 104.669832,18.4664139 103.047475,18.4664139 C101.439934,18.4664139 100.078709,19.0220158 98.9638014,20.1332195 C97.8488936,21.2444232 97.2914398,22.5667555 97.2914398,24.1002166 C97.2914398,25.6188617 97.8488936,26.935638 98.9638014,28.0505457 C100.078709,29.1654534 101.439934,29.7229073 103.047475,29.7229073 Z M106.358862,22.3111787 L99.7027518,22.3111787 C100.191681,20.9332861 101.306589,20.2443398 103.047475,20.2443398 C104.780953,20.2443398 105.884748,20.9332861 106.358862,22.3111787 L106.358862,22.3111787 Z M115.359612,29.7229073 C116.981969,29.7229073 118.356158,29.1561934 119.482177,28.0227657 C119.852579,27.6597724 120.178532,27.2412191 120.460037,26.7671055 L120.460037,26.7671055 L118.57099,26.1003833 C118.274669,26.4633765 118.074653,26.6967293 117.97094,26.8004416 C117.22273,27.5486521 116.352287,27.9227573 115.359612,27.9227573 C114.359528,27.9227573 113.49279,27.5560601 112.759395,26.8226657 C112.026001,26.0892712 111.659303,25.1817882 111.659303,24.1002166 L111.659303,24.1002166 L111.659303,24.0668805 L120.937854,24.0668805 C120.937854,22.4371151 120.452629,21.1333028 119.482177,20.1554435 C118.356158,19.0294238 116.981969,18.4664139 115.359612,18.4664139 C113.75207,18.4664139 112.390846,19.0220158 111.275938,20.1332195 C110.161031,21.2444232 109.603577,22.5667555 109.603577,24.1002166 C109.603577,25.6188617 110.161031,26.935638 111.275938,28.0505457 C112.390846,29.1654534 113.75207,29.7229073 115.359612,29.7229073 Z M118.670999,22.3111787 L112.014889,22.3111787 C112.503818,20.9332861 113.618726,20.2443398 115.359612,20.2443398 C117.09309,20.2443398 118.196885,20.9332861 118.670999,22.3111787 L118.670999,22.3111787 Z M127.916213,29.7229073 C129.538571,29.7229073 130.746079,29.041369 131.538737,27.6782925 L131.538737,27.6782925 L131.538737,29.4562184 L133.550016,29.4562184 L133.550016,19.2998167 L131.538737,19.2998167 L131.538737,20.4888046 C130.746079,19.1405442 129.538571,18.4664139 127.916213,18.4664139 C126.308672,18.4664139 124.947448,19.0220158 123.83254,20.1332195 C122.717632,21.2444232 122.160178,22.5667555 122.160178,24.1002166 C122.160178,25.6188617 122.717632,26.935638 123.83254,28.0505457 C124.947448,29.1654534 126.308672,29.7229073 127.916213,29.7229073 Z M127.916213,27.9227573 C126.91613,27.9227573 126.049391,27.5560601 125.315997,26.8226657 C124.582602,26.0892712 124.215905,25.1817882 124.215905,24.1002166 C124.215905,23.011237 124.582602,22.096346 125.315997,21.3555435 C126.049391,20.6147411 126.91613,20.2443398 127.916213,20.2443398 C128.908889,20.2443398 129.779332,20.6221491 130.527542,21.3777676 C131.06092,21.9111454 131.397985,22.5445315 131.538737,23.2779259 L131.538737,23.2779259 L131.538737,24.9002833 C131.397985,25.6336777 131.06092,26.2670638 130.527542,26.8004416 C129.779332,27.5486521 128.908889,27.9227573 127.916213,27.9227573 Z M149.306884,29.634011 C151.470028,29.634011 153.451674,28.8154243 155.251824,27.1782509 L155.251824,27.1782509 L153.851708,25.9337027 C152.384919,27.230107 150.869978,27.8783092 149.306884,27.8783092 C147.603039,27.8783092 146.130694,27.2597391 144.88985,26.022599 C143.649006,24.7854589 143.028584,23.2631099 143.028584,21.4555519 C143.028584,19.6628099 143.649006,18.1460169 144.88985,16.9051727 C146.130694,15.6643286 147.603039,15.0439066 149.306884,15.0439066 C150.869978,15.0439066 152.384919,15.6921087 153.851708,16.988513 L153.851708,16.988513 L155.251824,15.7439649 C153.451674,14.0993834 151.470028,13.2770927 149.306884,13.2770927 C146.980765,13.2770927 145.015786,14.0845674 143.411949,15.6995167 C141.808112,17.3144661 141.006193,19.2331445 141.006193,21.4555519 C141.006193,23.7001833 141.808112,25.6244177 143.411949,27.228255 C145.015786,28.8320923 146.980765,29.634011 149.306884,29.634011 Z M162.530208,29.7229073 C164.152566,29.7229073 165.360074,29.041369 166.152732,27.6782925 L166.152732,27.6782925 L166.152732,29.4562184 L168.164011,29.4562184 L168.164011,19.2998167 L166.152732,19.2998167 L166.152732,20.4888046 C165.360074,19.1405442 164.152566,18.4664139 162.530208,18.4664139 C160.922667,18.4664139 159.561443,19.0220158 158.446535,20.1332195 C157.331627,21.2444232 156.774173,22.5667555 156.774173,24.1002166 C156.774173,25.6188617 157.331627,26.935638 158.446535,28.0505457 C159.561443,29.1654534 160.922667,29.7229073 162.530208,29.7229073 Z M162.530208,27.9227573 C161.530125,27.9227573 160.663386,27.5560601 159.929992,26.8226657 C159.196597,26.0892712 158.8299,25.1817882 158.8299,24.1002166 C158.8299,23.011237 159.196597,22.096346 159.929992,21.3555435 C160.663386,20.6147411 161.530125,20.2443398 162.530208,20.2443398 C163.522884,20.2443398 164.393327,20.6221491 165.141537,21.3777676 C165.674915,21.9111454 166.01198,22.5445315 166.152732,23.2779259 L166.152732,23.2779259 L166.152732,24.9002833 C166.01198,25.6336777 165.674915,26.2670638 165.141537,26.8004416 C164.393327,27.5486521 163.522884,27.9227573 162.530208,27.9227573 Z M173.39778,29.4562184 L173.39778,21.0332945 L175.286827,21.0332945 L175.286827,19.2998167 L173.39778,19.2998167 L173.39778,15.3550436 L171.397614,15.3550436 L171.397614,19.2998167 L169.508568,19.2998167 L169.508568,21.0332945 L171.397614,21.0332945 L171.397614,29.4562184 L173.39778,29.4562184 Z M182.220738,29.7229073 C183.843095,29.7229073 185.050603,29.041369 185.843262,27.6782925 L185.843262,27.6782925 L185.843262,29.4562184 L187.85454,29.4562184 L187.85454,19.2998167 L185.843262,19.2998167 L185.843262,20.4888046 C185.050603,19.1405442 183.843095,18.4664139 182.220738,18.4664139 C180.613196,18.4664139 179.251972,19.0220158 178.137064,20.1332195 C177.022156,21.2444232 176.464703,22.5667555 176.464703,24.1002166 C176.464703,25.6188617 177.022156,26.935638 178.137064,28.0505457 C179.251972,29.1654534 180.613196,29.7229073 182.220738,29.7229073 Z M182.220738,27.9227573 C181.220654,27.9227573 180.353916,27.5560601 179.620521,26.8226657 C178.887127,26.0892712 178.520429,25.1817882 178.520429,24.1002166 C178.520429,23.011237 178.887127,22.096346 179.620521,21.3555435 C180.353916,20.6147411 181.220654,20.2443398 182.220738,20.2443398 C183.213413,20.2443398 184.083856,20.6221491 184.832066,21.3777676 C185.365444,21.9111454 185.702509,22.5445315 185.843262,23.2779259 L185.843262,23.2779259 L185.843262,24.9002833 C185.702509,25.6336777 185.365444,26.2670638 184.832066,26.8004416 C184.083856,27.5486521 183.213413,27.9227573 182.220738,27.9227573 Z M191.954882,29.4562184 L191.954882,21.8778093 C192.058594,21.6407525 192.240091,21.3925836 192.499372,21.1333028 C192.951261,20.7036374 193.473527,20.4888046 194.066169,20.4888046 C194.666219,20.4888046 195.199597,20.7166014 195.666302,21.1721949 C196.133008,21.6277884 196.366361,22.2000583 196.366361,22.8890046 L196.366361,22.8890046 L196.366361,29.4562184 L198.366527,29.4562184 L198.366527,22.8001083 C198.351711,21.6666806 197.951678,20.7073414 197.166427,19.9220908 C196.381177,19.1368402 195.347757,18.7442149 194.066169,18.7442149 C192.999414,18.7442149 192.295651,18.9294155 191.954882,19.2998167 L191.954882,19.2998167 L189.943603,19.2998167 L189.943603,29.4562184 L191.954882,29.4562184 Z M206.044945,29.7229073 C207.667302,29.7229073 208.87481,29.041369 209.667469,27.6782925 L209.667469,27.6782925 L209.667469,29.4562184 L211.678748,29.4562184 L211.678748,19.2998167 L209.667469,19.2998167 L209.667469,20.4888046 C208.87481,19.1405442 207.667302,18.4664139 206.044945,18.4664139 C204.437404,18.4664139 203.076179,19.0220158 201.961271,20.1332195 C200.846364,21.2444232 200.28891,22.5667555 200.28891,24.1002166 C200.28891,25.6188617 200.846364,26.935638 201.961271,28.0505457 C203.076179,29.1654534 204.437404,29.7229073 206.044945,29.7229073 Z M206.044945,27.9227573 C205.044862,27.9227573 204.178123,27.5560601 203.444728,26.8226657 C202.711334,26.0892712 202.344637,25.1817882 202.344637,24.1002166 C202.344637,23.011237 202.711334,22.096346 203.444728,21.3555435 C204.178123,20.6147411 205.044862,20.2443398 206.044945,20.2443398 C207.03762,20.2443398 207.908063,20.6221491 208.656274,21.3777676 C209.189651,21.9111454 209.526716,22.5445315 209.667469,23.2779259 L209.667469,23.2779259 L209.667469,24.9002833 C209.526716,25.6336777 209.189651,26.2670638 208.656274,26.8004416 C207.908063,27.5486521 207.03762,27.9227573 206.044945,27.9227573 Z" id="AndreeaCatana." fill="#FFFFFF" fill-rule="nonzero"></path>
            <circle id="Oval" fill="#FFFFFF" cx="21.3351108" cy="21.5" r="21.3351108"></circle>
            <path d="M23.9603548,9.72856877 L23.9602046,15.0328922 L24.0316212,14.9811079 C25.475447,13.9696226 27.2746196,13.3809093 29.250791,13.3809093 C31.4937749,13.3809093 33.7367589,14.2694344 35.3371404,15.7355478 L35.5513308,15.9390232 L33.9169803,17.9760399 C32.708982,16.6732967 30.9798865,15.8679645 29.2981635,15.8679645 C26.9213612,15.8679645 24.9096113,17.182153 23.9606524,19.1302348 L23.960605,24.2638512 C24.9095443,26.2188798 26.9213217,27.5452809 29.2981635,27.5452809 C30.8640871,27.5452809 32.4722659,26.8691995 33.7036701,25.7764362 L33.9169803,25.5793229 L35.5750171,27.4268497 C33.893294,29.0848865 31.5009838,30.1507673 29.156046,30.1507673 C27.1848873,30.1507673 25.3932833,29.5457454 23.9602905,28.5084196 L23.9603548,33.8031078 L23.5718457,33.8031078 L23.5718457,9.72856877 L23.9603548,9.72856877 Z M19.8837065,9.59689217 L19.8837065,33.6714312 L19.4951974,33.6714312 L19.4942046,22.4488922 L16.238758,16.2809488 L9.03342231,30.0208185 L7.49520457,30.0208185 L15.4060386,14.9624764 L15.4060386,14.9509109 L16.238758,13.4011276 L17.0367808,14.9046487 L19.4942046,19.5938922 L19.4951974,9.59689217 L19.8837065,9.59689217 Z M21.8493581,12.0583629 L21.8493581,32.2499118 L21.460849,32.2499118 L21.460849,12.0583629 L21.8493581,12.0583629 Z" id="Combined-Shape" fill="#202020" fill-rule="nonzero"></path>
        </g>
    </g>
</svg>