<?xml version="1.0" encoding="UTF-8"?>
<svg width="150px" height="50px" viewBox="0 0 150 50" version="1.1" xmlns="http://www.w3.org/2000/svg" xmlns:xlink="http://www.w3.org/1999/xlink">
    <title>Logo 150x50</title>
    <g id="Logo-150x50" stroke="none" stroke-width="1" fill="none" fill-rule="evenodd">
        <g id="Logo" transform="translate(0.500000, 10.500000)">
            <path d="M39.6199901,19.8720008 L41.2860418,15.363861 L44.2336717,15.363861 L45.8695686,19.8720008 L47.2868433,19.8720008 L43.359183,9.02381829 L42.1756079,9.02381829 L38.1951767,19.8720008 L39.6199901,19.8720008 Z M43.803966,14.1878246 L41.7157474,14.1878246 L42.7636261,11.308043 L43.803966,14.1878246 Z M49.4202941,19.8720008 L49.4202941,14.7306106 C49.4906552,14.5697851 49.6137872,14.4014209 49.7896901,14.2255181 C50.0962637,13.9340218 50.4505824,13.7882737 50.8526462,13.7882737 C51.2597357,13.7882737 51.6215931,13.942817 51.9382183,14.2519035 C52.2548435,14.56099 52.4131561,14.9492328 52.4131561,15.4166319 L52.4131561,15.4166319 L52.4131561,19.8720008 L53.7701213,19.8720008 L53.7701213,15.3563224 C53.7600697,14.5873754 53.4886766,13.9365347 52.9559422,13.4038003 C52.4232077,12.8710658 51.722109,12.6046986 50.8526462,12.6046986 C50.1289314,12.6046986 49.6514807,12.7303435 49.4202941,12.9816333 L49.4202941,12.9816333 L48.0557902,12.9816333 L48.0557902,19.8720008 L49.4202941,19.8720008 Z M58.9793597,20.0529295 C60.0800092,20.0529295 60.8992141,19.5905562 61.4369744,18.6658096 L61.4369744,18.6658096 L61.4369744,19.8720008 L62.8014782,19.8720008 L62.8014782,9.02381829 L61.4369744,9.02381829 L61.4369744,13.7882737 C60.8992141,12.8735787 60.0800092,12.4162312 58.9793597,12.4162312 C57.8887618,12.4162312 56.9652716,12.7931659 56.2088892,13.5470355 C55.4525068,14.300905 55.0743155,15.1980098 55.0743155,16.2383497 C55.0743155,17.2686381 55.4525068,18.1619735 56.2088892,18.9183559 C56.9652716,19.6747383 57.8887618,20.0529295 58.9793597,20.0529295 Z M58.9793597,18.8316609 C58.3008771,18.8316609 57.7128589,18.5828839 57.215305,18.0853301 C56.7177511,17.5877762 56.4689742,16.972116 56.4689742,16.2383497 C56.4689742,15.4995576 56.7177511,14.8788716 57.215305,14.376292 C57.7128589,13.8737123 58.3008771,13.6224224 58.9793597,13.6224224 C59.6528165,13.6224224 60.2433476,13.8787381 60.7509531,14.3913694 C61.1128105,14.7532267 61.3414842,15.1829324 61.4369744,15.6804863 L61.4369744,15.6804863 L61.4369744,16.7811358 C61.3414842,17.2786897 61.1128105,17.7083953 60.7509531,18.0702527 C60.2433476,18.5778581 59.6528165,18.8316609 58.9793597,18.8316609 Z M65.4174055,19.8720008 L65.4174055,16.2534271 C65.4174055,15.6503315 65.5882826,15.1490082 65.9300368,14.7494574 C66.271791,14.3499065 66.7542675,14.102386 67.3774663,14.0068959 L67.3774663,14.0068959 L66.7140611,12.8383981 C66.0506559,13.0494816 65.6184374,13.4239035 65.4174055,13.9616637 L65.4174055,13.9616637 L65.4174055,12.9816333 L64.0529017,12.9816333 L64.0529017,19.8720008 L65.4174055,19.8720008 Z M72.0665348,20.0529295 C73.1671843,20.0529295 74.0994696,19.6684561 74.8633907,18.8995091 C75.1146806,18.6532451 75.3358156,18.3692876 75.5267959,18.0476366 L75.5267959,18.0476366 L74.2452177,17.5953149 C74.0441858,17.8415789 73.9084893,17.9998915 73.8381282,18.0702527 C73.3305227,18.5778581 72.7399916,18.8316609 72.0665348,18.8316609 C71.3880522,18.8316609 70.800034,18.5828839 70.3024801,18.0853301 C69.8049262,17.5877762 69.5561492,16.972116 69.5561492,16.2383497 L69.5561492,16.2383497 L69.5561492,16.2157336 L75.8509598,16.2157336 C75.8509598,15.1100583 75.5217701,14.2255181 74.8633907,13.5621129 C74.0994696,12.7981917 73.1671843,12.4162312 72.0665348,12.4162312 C70.9759369,12.4162312 70.0524467,12.7931659 69.2960642,13.5470355 C68.5396818,14.300905 68.1614906,15.1980098 68.1614906,16.2383497 C68.1614906,17.2686381 68.5396818,18.1619735 69.2960642,18.9183559 C70.0524467,19.6747383 70.9759369,20.0529295 72.0665348,20.0529295 Z M74.313066,15.0246198 L69.7973875,15.0246198 C70.1290901,14.0898215 70.8854725,13.6224224 72.0665348,13.6224224 C73.2425712,13.6224224 73.991415,14.0898215 74.313066,15.0246198 L74.313066,15.0246198 Z M80.4194092,20.0529295 C81.5200587,20.0529295 82.452344,19.6684561 83.2162651,18.8995091 C83.467555,18.6532451 83.68869,18.3692876 83.8796703,18.0476366 L83.8796703,18.0476366 L82.5980921,17.5953149 C82.3970603,17.8415789 82.2613637,17.9998915 82.1910026,18.0702527 C81.6833971,18.5778581 81.092866,18.8316609 80.4194092,18.8316609 C79.7409266,18.8316609 79.1529084,18.5828839 78.6553545,18.0853301 C78.1578006,17.5877762 77.9090236,16.972116 77.9090236,16.2383497 L77.9090236,16.2383497 L77.9090236,16.2157336 L84.2038342,16.2157336 C84.2038342,15.1100583 83.8746445,14.2255181 83.2162651,13.5621129 C82.452344,12.7981917 81.5200587,12.4162312 80.4194092,12.4162312 C79.3288113,12.4162312 78.4053211,12.7931659 77.6489387,13.5470355 C76.8925562,14.300905 76.514365,15.1980098 76.514365,16.2383497 C76.514365,17.2686381 76.8925562,18.1619735 77.6489387,18.9183559 C78.4053211,19.6747383 79.3288113,20.0529295 80.4194092,20.0529295 Z M82.6659404,15.0246198 L78.1502619,15.0246198 C78.4819645,14.0898215 79.2383469,13.6224224 80.4194092,13.6224224 C81.5954456,13.6224224 82.3442894,14.0898215 82.6659404,15.0246198 L82.6659404,15.0246198 Z M88.9381349,20.0529295 C90.0387844,20.0529295 90.8579893,19.5905562 91.3957496,18.6658096 L91.3957496,18.6658096 L91.3957496,19.8720008 L92.7602534,19.8720008 L92.7602534,12.9816333 L91.3957496,12.9816333 L91.3957496,13.7882737 C90.8579893,12.8735787 90.0387844,12.4162312 88.9381349,12.4162312 C87.847537,12.4162312 86.9240468,12.7931659 86.1676644,13.5470355 C85.4112819,14.300905 85.0330907,15.1980098 85.0330907,16.2383497 C85.0330907,17.2686381 85.4112819,18.1619735 86.1676644,18.9183559 C86.9240468,19.6747383 87.847537,20.0529295 88.9381349,20.0529295 Z M88.9381349,18.8316609 C88.2596523,18.8316609 87.6716341,18.5828839 87.1740802,18.0853301 C86.6765263,17.5877762 86.4277493,16.972116 86.4277493,16.2383497 C86.4277493,15.4995576 86.6765263,14.8788716 87.1740802,14.376292 C87.6716341,13.8737123 88.2596523,13.6224224 88.9381349,13.6224224 C89.6115917,13.6224224 90.2021228,13.8787381 90.7097283,14.3913694 C91.0715857,14.7532267 91.3002594,15.1829324 91.3957496,15.6804863 L91.3957496,15.6804863 L91.3957496,16.7811358 C91.3002594,17.2786897 91.0715857,17.7083953 90.7097283,18.0702527 C90.2021228,18.5778581 89.6115917,18.8316609 88.9381349,18.8316609 Z M103.450123,19.99262 C104.917656,19.99262 106.262057,19.4372694 107.483325,18.3265683 L107.483325,18.3265683 L106.53345,17.4822344 C105.538342,18.3617489 104.510567,18.8015061 103.450123,18.8015061 C102.29419,18.8015061 101.295313,18.3818521 100.453492,17.542544 C99.611671,16.7032359 99.1907605,15.6704347 99.1907605,14.4441402 C99.1907605,13.2278974 99.611671,12.1988655 100.453492,11.3570445 C101.295313,10.5152235 102.29419,10.094313 103.450123,10.094313 C104.510567,10.094313 105.538342,10.5340703 106.53345,11.4135847 L106.53345,11.4135847 L107.483325,10.5692508 C106.262057,9.45352392 104.917656,8.89566047 103.450123,8.89566047 C101.872023,8.89566047 100.538931,9.44347233 99.4508455,10.539096 C98.3627605,11.6347198 97.818718,12.9364012 97.818718,14.4441402 C97.818718,15.9669567 98.3627605,17.2724074 99.4508455,18.3604924 C100.538931,19.4485775 101.872023,19.99262 103.450123,19.99262 Z M112.421171,20.0529295 C113.52182,20.0529295 114.341025,19.5905562 114.878785,18.6658096 L114.878785,18.6658096 L114.878785,19.8720008 L116.243289,19.8720008 L116.243289,12.9816333 L114.878785,12.9816333 L114.878785,13.7882737 C114.341025,12.8735787 113.52182,12.4162312 112.421171,12.4162312 C111.330573,12.4162312 110.407083,12.7931659 109.6507,13.5470355 C108.894318,14.300905 108.516127,15.1980098 108.516127,16.2383497 C108.516127,17.2686381 108.894318,18.1619735 109.6507,18.9183559 C110.407083,19.6747383 111.330573,20.0529295 112.421171,20.0529295 Z M112.421171,18.8316609 C111.742688,18.8316609 111.15467,18.5828839 110.657116,18.0853301 C110.159562,17.5877762 109.910785,16.972116 109.910785,16.2383497 C109.910785,15.4995576 110.159562,14.8788716 110.657116,14.376292 C111.15467,13.8737123 111.742688,13.6224224 112.421171,13.6224224 C113.094628,13.6224224 113.685159,13.8787381 114.192764,14.3913694 C114.554622,14.7532267 114.783295,15.1829324 114.878785,15.6804863 L114.878785,15.6804863 L114.878785,16.7811358 C114.783295,17.2786897 114.554622,17.7083953 114.192764,18.0702527 C113.685159,18.5778581 113.094628,18.8316609 112.421171,18.8316609 Z M119.794015,19.8720008 L119.794015,14.1576698 L121.075593,14.1576698 L121.075593,12.9816333 L119.794015,12.9816333 L119.794015,10.3053965 L118.43705,10.3053965 L118.43705,12.9816333 L117.155471,12.9816333 L117.155471,14.1576698 L118.43705,14.1576698 L118.43705,19.8720008 L119.794015,19.8720008 Z M125.779739,20.0529295 C126.880388,20.0529295 127.699593,19.5905562 128.237354,18.6658096 L128.237354,18.6658096 L128.237354,19.8720008 L129.601857,19.8720008 L129.601857,12.9816333 L128.237354,12.9816333 L128.237354,13.7882737 C127.699593,12.8735787 126.880388,12.4162312 125.779739,12.4162312 C124.689141,12.4162312 123.765651,12.7931659 123.009268,13.5470355 C122.252886,14.300905 121.874695,15.1980098 121.874695,16.2383497 C121.874695,17.2686381 122.252886,18.1619735 123.009268,18.9183559 C123.765651,19.6747383 124.689141,20.0529295 125.779739,20.0529295 Z M125.779739,18.8316609 C125.101256,18.8316609 124.513238,18.5828839 124.015684,18.0853301 C123.51813,17.5877762 123.269353,16.972116 123.269353,16.2383497 C123.269353,15.4995576 123.51813,14.8788716 124.015684,14.376292 C124.513238,13.8737123 125.101256,13.6224224 125.779739,13.6224224 C126.453196,13.6224224 127.043727,13.8787381 127.551332,14.3913694 C127.91319,14.7532267 128.141863,15.1829324 128.237354,15.6804863 L128.237354,15.6804863 L128.237354,16.7811358 C128.141863,17.2786897 127.91319,17.7083953 127.551332,18.0702527 C127.043727,18.5778581 126.453196,18.8316609 125.779739,18.8316609 Z M132.383636,19.8720008 L132.383636,14.7306106 C132.453997,14.5697851 132.577129,14.4014209 132.753032,14.2255181 C133.059606,13.9340218 133.413924,13.7882737 133.815988,13.7882737 C134.223078,13.7882737 134.584935,13.942817 134.90156,14.2519035 C135.218185,14.56099 135.376498,14.9492328 135.376498,15.4166319 L135.376498,15.4166319 L135.376498,19.8720008 L136.733463,19.8720008 L136.733463,15.3563224 C136.723412,14.5873754 136.452019,13.9365347 135.919284,13.4038003 C135.38655,12.8710658 134.685451,12.6046986 133.815988,12.6046986 C133.092273,12.6046986 132.614823,12.7303435 132.383636,12.9816333 L132.383636,12.9816333 L131.019132,12.9816333 L131.019132,19.8720008 L132.383636,19.8720008 Z M141.942702,20.0529295 C143.043351,20.0529295 143.862556,19.5905562 144.400316,18.6658096 L144.400316,18.6658096 L144.400316,19.8720008 L145.76482,19.8720008 L145.76482,12.9816333 L144.400316,12.9816333 L144.400316,13.7882737 C143.862556,12.8735787 143.043351,12.4162312 141.942702,12.4162312 C140.852104,12.4162312 139.928614,12.7931659 139.172231,13.5470355 C138.415849,14.300905 138.037657,15.1980098 138.037657,16.2383497 C138.037657,17.2686381 138.415849,18.1619735 139.172231,18.9183559 C139.928614,19.6747383 140.852104,20.0529295 141.942702,20.0529295 Z M141.942702,18.8316609 C141.264219,18.8316609 140.676201,18.5828839 140.178647,18.0853301 C139.681093,17.5877762 139.432316,16.972116 139.432316,16.2383497 C139.432316,15.4995576 139.681093,14.8788716 140.178647,14.376292 C140.676201,13.8737123 141.264219,13.6224224 141.942702,13.6224224 C142.616158,13.6224224 143.20669,13.8787381 143.714295,14.3913694 C144.076152,14.7532267 144.304826,15.1829324 144.400316,15.6804863 L144.400316,15.6804863 L144.400316,16.7811358 C144.304826,17.2786897 144.076152,17.7083953 143.714295,18.0702527 C143.20669,18.5778581 142.616158,18.8316609 141.942702,18.8316609 Z M147.822884,19.9624652 C148.099303,19.9624652 148.329233,19.8732573 148.512675,19.6948415 C148.696116,19.5164257 148.787837,19.3141374 148.787837,19.0879765 C148.787837,18.8618157 148.696116,18.6595273 148.512675,18.4811116 C148.329233,18.3026958 148.099303,18.2134879 147.822884,18.2134879 C147.536414,18.2134879 147.302714,18.3026958 147.121785,18.4811116 C146.940857,18.6595273 146.850392,18.8618157 146.850392,19.0879765 C146.850392,19.3141374 146.940857,19.5164257 147.121785,19.6948415 C147.302714,19.8732573 147.536414,19.9624652 147.822884,19.9624652 Z" id="AndreeaCatana." fill="#202020" fill-rule="nonzero"></path>
            <circle id="Oval-Copy" fill="#202020" cx="14.474295" cy="14.474295" r="14.474295"></circle>
            <path d="M15.7399479,8.22680975 L15.7393426,10.9960922 L15.8356021,10.9276708 C16.5789478,10.4244828 17.4960564,10.1328428 18.5008476,10.1328428 C19.6430085,10.1328428 20.7851693,10.5743245 21.6157804,11.3065381 L21.7888864,11.467836 L20.9359741,12.5308861 C20.3055606,11.8510285 19.4032041,11.4307528 18.5255697,11.4307528 C17.284041,11.4307528 16.233376,12.1178624 15.73872,13.1360648 L15.7390154,15.8100899 C16.2337942,16.8315539 17.2842881,17.5247495 18.5255697,17.5247495 C19.318737,17.5247495 20.1326776,17.1923746 20.7674475,16.6514 L20.9359741,16.4987825 L21.8012474,17.4629442 C20.923613,18.3282176 19.6751472,18.8844647 18.4514034,18.8844647 C17.4221173,18.8844647 16.4866451,18.5683528 15.7385951,18.0264237 L15.7399479,20.7904978 L15.5371981,20.7904978 L15.5371981,8.22680975 L15.7399479,8.22680975 Z M13.6124829,8.15809219 L13.6124829,20.7217802 L13.4097331,20.7217802 L13.4093426,14.8663941 L11.7103075,11.6462754 L7.9500864,18.8166489 L7.14734256,18.8166489 L11.2757394,10.9582092 L11.2757394,10.9521736 L11.7103075,10.1433941 L12.1267686,10.9280309 L13.4093426,13.3753941 L13.4097331,8.15809219 L13.6124829,8.15809219 Z M14.63829,9.44265053 L14.63829,19.9799373 L14.4355403,19.9799373 L14.4355403,9.44265053 L14.63829,9.44265053 Z" id="Combined-Shape" fill="#FFFFFF" fill-rule="nonzero"></path>
        </g>
    </g>
</svg>