<?xml version="1.0" encoding="UTF-8"?>
<svg width="871px" height="250px" viewBox="0 0 871 250" version="1.1" xmlns="http://www.w3.org/2000/svg" xmlns:xlink="http://www.w3.org/1999/xlink">
    <title>Logo</title>
    <g id="Logo" stroke="none" stroke-width="1" fill="none" fill-rule="evenodd">
        <path d="M255.31543,152.96875 L263.948242,129.609375 L279.22168,129.609375 L287.698242,152.96875 L295.041992,152.96875 L274.69043,96.7578125 L268.557617,96.7578125 L247.932617,152.96875 L255.31543,152.96875 Z M276.995117,123.515625 L266.174805,123.515625 L271.604492,108.59375 L276.995117,123.515625 Z M306.09668,152.96875 L306.09668,126.328125 C306.461263,125.494792 307.099284,124.622396 308.010742,123.710938 C309.599284,122.200521 311.435221,121.445312 313.518555,121.445312 C315.62793,121.445312 317.50293,122.246094 319.143555,123.847656 C320.78418,125.449219 321.604492,127.460938 321.604492,129.882812 L321.604492,129.882812 L321.604492,152.96875 L328.635742,152.96875 L328.635742,129.570312 C328.583659,125.585938 327.177409,122.213542 324.416992,119.453125 C321.656576,116.692708 318.023763,115.3125 313.518555,115.3125 C309.768555,115.3125 307.294596,115.963542 306.09668,117.265625 L306.09668,117.265625 L299.026367,117.265625 L299.026367,152.96875 L306.09668,152.96875 Z M355.62793,153.90625 C361.331055,153.90625 365.575846,151.510417 368.362305,146.71875 L368.362305,146.71875 L368.362305,152.96875 L375.432617,152.96875 L375.432617,96.7578125 L368.362305,96.7578125 L368.362305,121.445312 C365.575846,116.705729 361.331055,114.335938 355.62793,114.335938 C349.976888,114.335938 345.191732,116.289062 341.272461,120.195312 C337.35319,124.101562 335.393555,128.75 335.393555,134.140625 C335.393555,139.479167 337.35319,144.108073 341.272461,148.027344 C345.191732,151.946615 349.976888,153.90625 355.62793,153.90625 Z M355.62793,147.578125 C352.112305,147.578125 349.06543,146.289062 346.487305,143.710938 C343.90918,141.132812 342.620117,137.942708 342.620117,134.140625 C342.620117,130.3125 343.90918,127.096354 346.487305,124.492188 C349.06543,121.888021 352.112305,120.585938 355.62793,120.585938 C359.117513,120.585938 362.177409,121.914062 364.807617,124.570312 C366.682617,126.445312 367.867513,128.671875 368.362305,131.25 L368.362305,131.25 L368.362305,136.953125 C367.867513,139.53125 366.682617,141.757812 364.807617,143.632812 C362.177409,146.263021 359.117513,147.578125 355.62793,147.578125 Z M388.987305,152.96875 L388.987305,134.21875 C388.987305,131.09375 389.872721,128.496094 391.643555,126.425781 C393.414388,124.355469 395.914388,123.072917 399.143555,122.578125 L399.143555,122.578125 L395.706055,116.523438 C392.268555,117.617188 390.028971,119.557292 388.987305,122.34375 L388.987305,122.34375 L388.987305,117.265625 L381.916992,117.265625 L381.916992,152.96875 L388.987305,152.96875 Z M423.44043,153.90625 C429.143555,153.90625 433.974284,151.914062 437.932617,147.929688 C439.234701,146.653646 440.380534,145.182292 441.370117,143.515625 L441.370117,143.515625 L434.729492,141.171875 C433.687826,142.447917 432.984701,143.268229 432.620117,143.632812 C429.989909,146.263021 426.930013,147.578125 423.44043,147.578125 C419.924805,147.578125 416.87793,146.289062 414.299805,143.710938 C411.72168,141.132812 410.432617,137.942708 410.432617,134.140625 L410.432617,134.140625 L410.432617,134.023438 L443.049805,134.023438 C443.049805,128.294271 441.344076,123.710938 437.932617,120.273438 C433.974284,116.315104 429.143555,114.335938 423.44043,114.335938 C417.789388,114.335938 413.004232,116.289062 409.084961,120.195312 C405.16569,124.101562 403.206055,128.75 403.206055,134.140625 C403.206055,139.479167 405.16569,144.108073 409.084961,148.027344 C413.004232,151.946615 417.789388,153.90625 423.44043,153.90625 Z M435.081055,127.851562 L411.682617,127.851562 C413.401367,123.007812 417.320638,120.585938 423.44043,120.585938 C429.53418,120.585938 433.414388,123.007812 435.081055,127.851562 L435.081055,127.851562 Z M466.72168,153.90625 C472.424805,153.90625 477.255534,151.914062 481.213867,147.929688 C482.515951,146.653646 483.661784,145.182292 484.651367,143.515625 L484.651367,143.515625 L478.010742,141.171875 C476.969076,142.447917 476.265951,143.268229 475.901367,143.632812 C473.271159,146.263021 470.211263,147.578125 466.72168,147.578125 C463.206055,147.578125 460.15918,146.289062 457.581055,143.710938 C455.00293,141.132812 453.713867,137.942708 453.713867,134.140625 L453.713867,134.140625 L453.713867,134.023438 L486.331055,134.023438 C486.331055,128.294271 484.625326,123.710938 481.213867,120.273438 C477.255534,116.315104 472.424805,114.335938 466.72168,114.335938 C461.070638,114.335938 456.285482,116.289062 452.366211,120.195312 C448.44694,124.101562 446.487305,128.75 446.487305,134.140625 C446.487305,139.479167 448.44694,144.108073 452.366211,148.027344 C456.285482,151.946615 461.070638,153.90625 466.72168,153.90625 Z M478.362305,127.851562 L454.963867,127.851562 C456.682617,123.007812 460.601888,120.585938 466.72168,120.585938 C472.81543,120.585938 476.695638,123.007812 478.362305,127.851562 L478.362305,127.851562 Z M510.862305,153.90625 C516.56543,153.90625 520.810221,151.510417 523.59668,146.71875 L523.59668,146.71875 L523.59668,152.96875 L530.666992,152.96875 L530.666992,117.265625 L523.59668,117.265625 L523.59668,121.445312 C520.810221,116.705729 516.56543,114.335938 510.862305,114.335938 C505.211263,114.335938 500.426107,116.289062 496.506836,120.195312 C492.587565,124.101562 490.62793,128.75 490.62793,134.140625 C490.62793,139.479167 492.587565,144.108073 496.506836,148.027344 C500.426107,151.946615 505.211263,153.90625 510.862305,153.90625 Z M510.862305,147.578125 C507.34668,147.578125 504.299805,146.289062 501.72168,143.710938 C499.143555,141.132812 497.854492,137.942708 497.854492,134.140625 C497.854492,130.3125 499.143555,127.096354 501.72168,124.492188 C504.299805,121.888021 507.34668,120.585938 510.862305,120.585938 C514.351888,120.585938 517.411784,121.914062 520.041992,124.570312 C521.916992,126.445312 523.101888,128.671875 523.59668,131.25 L523.59668,131.25 L523.59668,136.953125 C523.101888,139.53125 521.916992,141.757812 520.041992,143.632812 C517.411784,146.263021 514.351888,147.578125 510.862305,147.578125 Z M586.057617,153.59375 C593.661784,153.59375 600.62793,150.716146 606.956055,144.960938 L606.956055,144.960938 L602.03418,140.585938 C596.87793,145.143229 591.552409,147.421875 586.057617,147.421875 C580.068034,147.421875 574.892253,145.247396 570.530273,140.898438 C566.168294,136.549479 563.987305,131.197917 563.987305,124.84375 C563.987305,118.541667 566.168294,113.209635 570.530273,108.847656 C574.892253,104.485677 580.068034,102.304688 586.057617,102.304688 C591.552409,102.304688 596.87793,104.583333 602.03418,109.140625 L602.03418,109.140625 L606.956055,104.765625 C600.62793,98.984375 593.661784,96.09375 586.057617,96.09375 C577.880534,96.09375 570.972982,98.9322917 565.334961,104.609375 C559.69694,110.286458 556.87793,117.03125 556.87793,124.84375 C556.87793,132.734375 559.69694,139.498698 565.334961,145.136719 C570.972982,150.77474 577.880534,153.59375 586.057617,153.59375 Z M632.541992,153.90625 C638.245117,153.90625 642.489909,151.510417 645.276367,146.71875 L645.276367,146.71875 L645.276367,152.96875 L652.34668,152.96875 L652.34668,117.265625 L645.276367,117.265625 L645.276367,121.445312 C642.489909,116.705729 638.245117,114.335938 632.541992,114.335938 C626.890951,114.335938 622.105794,116.289062 618.186523,120.195312 C614.267253,124.101562 612.307617,128.75 612.307617,134.140625 C612.307617,139.479167 614.267253,144.108073 618.186523,148.027344 C622.105794,151.946615 626.890951,153.90625 632.541992,153.90625 Z M632.541992,147.578125 C629.026367,147.578125 625.979492,146.289062 623.401367,143.710938 C620.823242,141.132812 619.53418,137.942708 619.53418,134.140625 C619.53418,130.3125 620.823242,127.096354 623.401367,124.492188 C625.979492,121.888021 629.026367,120.585938 632.541992,120.585938 C636.031576,120.585938 639.091471,121.914062 641.72168,124.570312 C643.59668,126.445312 644.781576,128.671875 645.276367,131.25 L645.276367,131.25 L645.276367,136.953125 C644.781576,139.53125 643.59668,141.757812 641.72168,143.632812 C639.091471,146.263021 636.031576,147.578125 632.541992,147.578125 Z M670.745117,152.96875 L670.745117,123.359375 L677.385742,123.359375 L677.385742,117.265625 L670.745117,117.265625 L670.745117,103.398438 L663.713867,103.398438 L663.713867,117.265625 L657.073242,117.265625 L657.073242,123.359375 L663.713867,123.359375 L663.713867,152.96875 L670.745117,152.96875 Z M701.760742,153.90625 C707.463867,153.90625 711.708659,151.510417 714.495117,146.71875 L714.495117,146.71875 L714.495117,152.96875 L721.56543,152.96875 L721.56543,117.265625 L714.495117,117.265625 L714.495117,121.445312 C711.708659,116.705729 707.463867,114.335938 701.760742,114.335938 C696.109701,114.335938 691.324544,116.289062 687.405273,120.195312 C683.486003,124.101562 681.526367,128.75 681.526367,134.140625 C681.526367,139.479167 683.486003,144.108073 687.405273,148.027344 C691.324544,151.946615 696.109701,153.90625 701.760742,153.90625 Z M701.760742,147.578125 C698.245117,147.578125 695.198242,146.289062 692.620117,143.710938 C690.041992,141.132812 688.75293,137.942708 688.75293,134.140625 C688.75293,130.3125 690.041992,127.096354 692.620117,124.492188 C695.198242,121.888021 698.245117,120.585938 701.760742,120.585938 C705.250326,120.585938 708.310221,121.914062 710.94043,124.570312 C712.81543,126.445312 714.000326,128.671875 714.495117,131.25 L714.495117,131.25 L714.495117,136.953125 C714.000326,139.53125 712.81543,141.757812 710.94043,143.632812 C708.310221,146.263021 705.250326,147.578125 701.760742,147.578125 Z M735.979492,152.96875 L735.979492,126.328125 C736.344076,125.494792 736.982096,124.622396 737.893555,123.710938 C739.482096,122.200521 741.318034,121.445312 743.401367,121.445312 C745.510742,121.445312 747.385742,122.246094 749.026367,123.847656 C750.666992,125.449219 751.487305,127.460938 751.487305,129.882812 L751.487305,129.882812 L751.487305,152.96875 L758.518555,152.96875 L758.518555,129.570312 C758.466471,125.585938 757.060221,122.213542 754.299805,119.453125 C751.539388,116.692708 747.906576,115.3125 743.401367,115.3125 C739.651367,115.3125 737.177409,115.963542 735.979492,117.265625 L735.979492,117.265625 L728.90918,117.265625 L728.90918,152.96875 L735.979492,152.96875 Z M785.510742,153.90625 C791.213867,153.90625 795.458659,151.510417 798.245117,146.71875 L798.245117,146.71875 L798.245117,152.96875 L805.31543,152.96875 L805.31543,117.265625 L798.245117,117.265625 L798.245117,121.445312 C795.458659,116.705729 791.213867,114.335938 785.510742,114.335938 C779.859701,114.335938 775.074544,116.289062 771.155273,120.195312 C767.236003,124.101562 765.276367,128.75 765.276367,134.140625 C765.276367,139.479167 767.236003,144.108073 771.155273,148.027344 C775.074544,151.946615 779.859701,153.90625 785.510742,153.90625 Z M785.510742,147.578125 C781.995117,147.578125 778.948242,146.289062 776.370117,143.710938 C773.791992,141.132812 772.50293,137.942708 772.50293,134.140625 C772.50293,130.3125 773.791992,127.096354 776.370117,124.492188 C778.948242,121.888021 781.995117,120.585938 785.510742,120.585938 C789.000326,120.585938 792.060221,121.914062 794.69043,124.570312 C796.56543,126.445312 797.750326,128.671875 798.245117,131.25 L798.245117,131.25 L798.245117,136.953125 C797.750326,139.53125 796.56543,141.757812 794.69043,143.632812 C792.060221,146.263021 789.000326,147.578125 785.510742,147.578125 Z M815.979492,153.4375 C817.411784,153.4375 818.60319,152.97526 819.553711,152.050781 C820.504232,151.126302 820.979492,150.078125 820.979492,148.90625 C820.979492,147.734375 820.504232,146.686198 819.553711,145.761719 C818.60319,144.83724 817.411784,144.375 815.979492,144.375 C814.495117,144.375 813.28418,144.83724 812.34668,145.761719 C811.40918,146.686198 810.94043,147.734375 810.94043,148.90625 C810.94043,150.078125 811.40918,151.126302 812.34668,152.050781 C813.28418,152.97526 814.495117,153.4375 815.979492,153.4375 Z" id="AndreeaCatana." fill="#202020" fill-rule="nonzero"></path>
        <circle id="Oval" fill="#202020" cx="125.020508" cy="125" r="75"></circle>
        <path d="M131.578614,92.6280334 L131.578186,106.968232 C135.514601,104.149427 140.452244,102.504333 145.884491,102.504333 C152.074466,102.504333 158.264441,105.006822 162.607341,109.118054 L162.921791,109.421733 L158.502341,114.930033 C155.235791,111.407283 150.560141,109.229583 146.012591,109.229583 C139.58503,109.229583 134.144745,112.783776 131.578885,118.052191 L131.578933,131.932177 C134.144813,137.219177 139.585071,140.806233 146.012591,140.806233 C150.360227,140.806233 154.828318,138.87897 158.190421,135.783667 L158.502341,135.490083 L162.985841,140.485983 C158.438291,144.969483 151.969241,147.851733 145.628291,147.851733 C140.297933,147.851733 135.453137,146.215604 131.578126,143.410431 L131.578614,157.728033 L130.528046,157.728033 L130.528046,92.6280334 L131.578614,92.6280334 Z M120.554943,92.2719666 L120.554943,157.371967 L119.504375,157.371967 L119.504375,92.2719666 L120.554943,92.2719666 Z M125.870264,98.9280334 L125.870264,153.528033 L124.819696,153.528033 L124.819696,98.9280334 L125.870264,98.9280334 Z M110.698632,102.559006 L112.856566,106.62468 L119.504175,119.309006 L119.504175,127.031006 L110.698632,110.346335 L91.2146717,147.500339 L87.0551746,147.500339 L108.446874,106.781052 L108.446874,106.749777 L110.698632,102.559006 Z" id="Combined-Shape" fill="#FFFFFF" fill-rule="nonzero"></path>
    </g>
</svg>