<?xml version="1.0" encoding="UTF-8"?>
<svg width="253px" height="50px" viewBox="0 0 253 50" version="1.1" xmlns="http://www.w3.org/2000/svg" xmlns:xlink="http://www.w3.org/1999/xlink">
    <title>Logo 253x50 white</title>
    <g id="Logo-253x50-white" stroke="none" stroke-width="1" fill="none" fill-rule="evenodd">
        <g id="Logo-200x50-Copy" transform="translate(0.000000, 5.500000)">
            <path d="M53.8544838,29.5216515 L56.9799967,21.0643812 L62.5097503,21.0643812 L65.5786929,29.5216515 L68.2375003,29.5216515 L60.8692096,9.17046099 L58.6488226,9.17046099 L51.1815338,29.5216515 L53.8544838,29.5216515 Z M61.7036226,18.8581368 L57.7861245,18.8581368 L59.7519448,13.4556665 L61.7036226,18.8581368 Z M72.2398539,29.5216515 L72.2398539,19.8764034 C72.3718514,19.5746948 72.6028471,19.2588436 72.9328409,18.9288498 C73.507973,18.3820028 74.1726749,18.1085794 74.9269465,18.1085794 C75.6906465,18.1085794 76.3694909,18.3985025 76.9634798,18.9783488 C77.5574687,19.5581951 77.8544631,20.2865386 77.8544631,21.1633794 L77.8544631,21.1633794 L77.8544631,29.5216515 L80.4001297,29.5216515 L80.4001297,21.0502386 C80.3812729,19.6076942 79.8721396,18.386717 78.8727297,17.3873072 C77.8733199,16.3878973 76.5580588,15.8881924 74.9269465,15.8881924 C73.5692576,15.8881924 72.6735601,16.1239023 72.2398539,16.595322 L72.2398539,16.595322 L69.6800447,16.595322 L69.6800447,29.5216515 L72.2398539,29.5216515 Z M90.1726611,29.8610737 C92.2374796,29.8610737 93.7743079,28.9936613 94.7831462,27.2588367 L94.7831462,27.2588367 L94.7831462,29.5216515 L97.3429554,29.5216515 L97.3429554,9.17046099 L94.7831462,9.17046099 L94.7831462,18.1085794 C93.7743079,16.3926115 92.2374796,15.5346276 90.1726611,15.5346276 C88.1266994,15.5346276 86.3942318,16.2417572 84.9752584,17.6560164 C83.5562849,19.0702757 82.8467982,20.7532442 82.8467982,22.7049219 C82.8467982,24.6377429 83.5562849,26.3136401 84.9752584,27.7326135 C86.3942318,29.151587 88.1266994,29.8610737 90.1726611,29.8610737 Z M90.1726611,27.5699737 C88.8998278,27.5699737 87.7967056,27.1032682 86.8632945,26.1698571 C85.9298834,25.236446 85.4631778,24.0814676 85.4631778,22.7049219 C85.4631778,21.3189479 85.9298834,20.1545411 86.8632945,19.2117016 C87.7967056,18.2688621 88.8998278,17.7974424 90.1726611,17.7974424 C91.436066,17.7974424 92.5439024,18.2782905 93.4961703,19.2399868 C94.1750147,19.9188312 94.6040067,20.724959 94.7831462,21.6583701 L94.7831462,21.6583701 L94.7831462,23.7231886 C94.6040067,24.6565997 94.1750147,25.4627274 93.4961703,26.1415719 C92.5439024,27.0938398 91.436066,27.5699737 90.1726611,27.5699737 Z M102.250435,29.5216515 L102.250435,22.7332071 C102.250435,21.6017997 102.571,20.6613173 103.212131,19.9117599 C103.853262,19.1622025 104.758388,18.6978541 105.927509,18.5187146 L105.927509,18.5187146 L104.682961,16.3266127 C103.438413,16.7226053 102.627571,17.4250208 102.250435,18.433859 L102.250435,18.433859 L102.250435,16.595322 L99.6906258,16.595322 L99.6906258,29.5216515 L102.250435,29.5216515 Z M114.724201,29.8610737 C116.78902,29.8610737 118.537987,29.1398015 119.971103,27.697257 C120.442523,27.2352657 120.857372,26.7025614 121.215651,26.0991441 L121.215651,26.0991441 L118.811411,25.2505886 C118.434275,25.7125799 118.179708,26.0095743 118.047711,26.1415719 C117.095443,27.0938398 115.987606,27.5699737 114.724201,27.5699737 C113.451368,27.5699737 112.348246,27.1032682 111.414835,26.1698571 C110.481424,25.236446 110.014718,24.0814676 110.014718,22.7049219 L110.014718,22.7049219 L110.014718,22.6624941 L121.823783,22.6624941 C121.823783,20.5882473 121.206223,18.9288498 119.971103,17.6843016 C118.537987,16.2511856 116.78902,15.5346276 114.724201,15.5346276 C112.67824,15.5346276 110.945772,16.2417572 109.526799,17.6560164 C108.107825,19.0702757 107.398339,20.7532442 107.398339,22.7049219 C107.398339,24.6377429 108.107825,26.3136401 109.526799,27.7326135 C110.945772,29.151587 112.67824,29.8610737 114.724201,29.8610737 Z M118.938694,20.4279645 L110.467281,20.4279645 C111.089555,18.6742831 112.508529,17.7974424 114.724201,17.7974424 C116.930446,17.7974424 118.335277,18.6742831 118.938694,20.4279645 L118.938694,20.4279645 Z M130.394194,29.8610737 C132.459012,29.8610737 134.20798,29.1398015 135.641096,27.697257 C136.112515,27.2352657 136.527365,26.7025614 136.885644,26.0991441 L136.885644,26.0991441 L134.481403,25.2505886 C134.104267,25.7125799 133.849701,26.0095743 133.717703,26.1415719 C132.765435,27.0938398 131.657599,27.5699737 130.394194,27.5699737 C129.121361,27.5699737 128.018238,27.1032682 127.084827,26.1698571 C126.151416,25.236446 125.684711,24.0814676 125.684711,22.7049219 L125.684711,22.7049219 L125.684711,22.6624941 L137.493775,22.6624941 C137.493775,20.5882473 136.876215,18.9288498 135.641096,17.6843016 C134.20798,16.2511856 132.459012,15.5346276 130.394194,15.5346276 C128.348232,15.5346276 126.615765,16.2417572 125.196791,17.6560164 C123.777818,19.0702757 123.068331,20.7532442 123.068331,22.7049219 C123.068331,24.6377429 123.777818,26.3136401 125.196791,27.7326135 C126.615765,29.151587 128.348232,29.8610737 130.394194,29.8610737 Z M134.608686,20.4279645 L126.137274,20.4279645 C126.759548,18.6742831 128.178521,17.7974424 130.394194,17.7974424 C132.600438,17.7974424 134.005269,18.6742831 134.608686,20.4279645 L134.608686,20.4279645 Z M146.375323,29.8610737 C148.440142,29.8610737 149.97697,28.9936613 150.985808,27.2588367 L150.985808,27.2588367 L150.985808,29.5216515 L153.545618,29.5216515 L153.545618,16.595322 L150.985808,16.595322 L150.985808,18.1085794 C149.97697,16.3926115 148.440142,15.5346276 146.375323,15.5346276 C144.329362,15.5346276 142.596894,16.2417572 141.177921,17.6560164 C139.758947,19.0702757 139.04946,20.7532442 139.04946,22.7049219 C139.04946,24.6377429 139.758947,26.3136401 141.177921,27.7326135 C142.596894,29.151587 144.329362,29.8610737 146.375323,29.8610737 Z M146.375323,27.5699737 C145.10249,27.5699737 143.999368,27.1032682 143.065957,26.1698571 C142.132546,25.236446 141.66584,24.0814676 141.66584,22.7049219 C141.66584,21.3189479 142.132546,20.1545411 143.065957,19.2117016 C143.999368,18.2688621 145.10249,17.7974424 146.375323,17.7974424 C147.638728,17.7974424 148.746565,18.2782905 149.698833,19.2399868 C150.377677,19.9188312 150.806669,20.724959 150.985808,21.6583701 L150.985808,21.6583701 L150.985808,23.7231886 C150.806669,24.6565997 150.377677,25.4627274 149.698833,26.1415719 C148.746565,27.0938398 147.638728,27.5699737 146.375323,27.5699737 Z M173.599814,29.7479329 C176.352905,29.7479329 178.875001,28.7060953 181.166101,26.62242 L181.166101,26.62242 L179.384134,25.0384497 C177.517312,26.6884188 175.589205,27.5134033 173.599814,27.5134033 C171.431283,27.5134033 169.557389,26.7261324 167.978133,25.1515904 C166.398877,23.5770485 165.609249,21.6395133 165.609249,19.3389849 C165.609249,17.0573134 166.398877,15.1268495 167.978133,13.5475933 C169.557389,11.9683372 171.431283,11.1787091 173.599814,11.1787091 C175.589205,11.1787091 177.517312,12.0036937 179.384134,13.6536628 L179.384134,13.6536628 L181.166101,12.0696924 C178.875001,9.97658876 176.352905,8.93003692 173.599814,8.93003692 C170.639298,8.93003692 168.138416,9.95773197 166.097168,12.0131221 C164.055921,14.0685122 163.035297,16.5104664 163.035297,19.3389849 C163.035297,22.1957886 164.055921,24.6448142 166.097168,26.6860617 C168.138416,28.7273092 170.639298,29.7479329 173.599814,29.7479329 Z M190.429499,29.8610737 C192.494317,29.8610737 194.031146,28.9936613 195.039984,27.2588367 L195.039984,27.2588367 L195.039984,29.5216515 L197.599793,29.5216515 L197.599793,16.595322 L195.039984,16.595322 L195.039984,18.1085794 C194.031146,16.3926115 192.494317,15.5346276 190.429499,15.5346276 C188.383537,15.5346276 186.651069,16.2417572 185.232096,17.6560164 C183.813122,19.0702757 183.103636,20.7532442 183.103636,22.7049219 C183.103636,24.6377429 183.813122,26.3136401 185.232096,27.7326135 C186.651069,29.151587 188.383537,29.8610737 190.429499,29.8610737 Z M190.429499,27.5699737 C189.156665,27.5699737 188.053543,27.1032682 187.120132,26.1698571 C186.186721,25.236446 185.720015,24.0814676 185.720015,22.7049219 C185.720015,21.3189479 186.186721,20.1545411 187.120132,19.2117016 C188.053543,18.2688621 189.156665,17.7974424 190.429499,17.7974424 C191.692904,17.7974424 192.80074,18.2782905 193.753008,19.2399868 C194.431852,19.9188312 194.860844,20.724959 195.039984,21.6583701 L195.039984,21.6583701 L195.039984,23.7231886 C194.860844,24.6565997 194.431852,25.4627274 193.753008,26.1415719 C192.80074,27.0938398 191.692904,27.5699737 190.429499,27.5699737 Z M204.260954,29.5216515 L204.260954,18.8015664 L206.665195,18.8015664 L206.665195,16.595322 L204.260954,16.595322 L204.260954,11.5747017 L201.715287,11.5747017 L201.715287,16.595322 L199.311047,16.595322 L199.311047,18.8015664 L201.715287,18.8015664 L201.715287,29.5216515 L204.260954,29.5216515 Z M215.490172,29.8610737 C217.554991,29.8610737 219.091819,28.9936613 220.100658,27.2588367 L220.100658,27.2588367 L220.100658,29.5216515 L222.660467,29.5216515 L222.660467,16.595322 L220.100658,16.595322 L220.100658,18.1085794 C219.091819,16.3926115 217.554991,15.5346276 215.490172,15.5346276 C213.444211,15.5346276 211.711743,16.2417572 210.29277,17.6560164 C208.873796,19.0702757 208.16431,20.7532442 208.16431,22.7049219 C208.16431,24.6377429 208.873796,26.3136401 210.29277,27.7326135 C211.711743,29.151587 213.444211,29.8610737 215.490172,29.8610737 Z M215.490172,27.5699737 C214.217339,27.5699737 213.114217,27.1032682 212.180806,26.1698571 C211.247395,25.236446 210.780689,24.0814676 210.780689,22.7049219 C210.780689,21.3189479 211.247395,20.1545411 212.180806,19.2117016 C213.114217,18.2688621 214.217339,17.7974424 215.490172,17.7974424 C216.753577,17.7974424 217.861414,18.2782905 218.813682,19.2399868 C219.492526,19.9188312 219.921518,20.724959 220.100658,21.6583701 L220.100658,21.6583701 L220.100658,23.7231886 C219.921518,24.6565997 219.492526,25.4627274 218.813682,26.1415719 C217.861414,27.0938398 216.753577,27.5699737 215.490172,27.5699737 Z M227.879083,29.5216515 L227.879083,19.8764034 C228.011081,19.5746948 228.242077,19.2588436 228.57207,18.9288498 C229.147202,18.3820028 229.811904,18.1085794 230.566176,18.1085794 C231.329876,18.1085794 232.00872,18.3985025 232.602709,18.9783488 C233.196698,19.5581951 233.493693,20.2865386 233.493693,21.1633794 L233.493693,21.1633794 L233.493693,29.5216515 L236.039359,29.5216515 L236.039359,21.0502386 C236.020502,19.6076942 235.511369,18.386717 234.511959,17.3873072 C233.512549,16.3878973 232.197288,15.8881924 230.566176,15.8881924 C229.208487,15.8881924 228.31279,16.1239023 227.879083,16.595322 L227.879083,16.595322 L225.319274,16.595322 L225.319274,29.5216515 L227.879083,29.5216515 Z M245.811891,29.8610737 C247.876709,29.8610737 249.413537,28.9936613 250.422376,27.2588367 L250.422376,27.2588367 L250.422376,29.5216515 L252.982185,29.5216515 L252.982185,16.595322 L250.422376,16.595322 L250.422376,18.1085794 C249.413537,16.3926115 247.876709,15.5346276 245.811891,15.5346276 C243.765929,15.5346276 242.033461,16.2417572 240.614488,17.6560164 C239.195514,19.0702757 238.486028,20.7532442 238.486028,22.7049219 C238.486028,24.6377429 239.195514,26.3136401 240.614488,27.7326135 C242.033461,29.151587 243.765929,29.8610737 245.811891,29.8610737 Z M245.811891,27.5699737 C244.539057,27.5699737 243.435935,27.1032682 242.502524,26.1698571 C241.569113,25.236446 241.102407,24.0814676 241.102407,22.7049219 C241.102407,21.3189479 241.569113,20.1545411 242.502524,19.2117016 C243.435935,18.2688621 244.539057,17.7974424 245.811891,17.7974424 C247.075295,17.7974424 248.183132,18.2782905 249.1354,19.2399868 C249.814244,19.9188312 250.243236,20.724959 250.422376,21.6583701 L250.422376,21.6583701 L250.422376,23.7231886 C250.243236,24.6565997 249.814244,25.4627274 249.1354,26.1415719 C248.183132,27.0938398 247.075295,27.5699737 245.811891,27.5699737 Z" id="AndreeaCatana." fill="#FFFFFF" fill-rule="nonzero"></path>
            <circle id="Oval" fill="#FFFFFF" cx="19.3955553" cy="19.3955553" r="19.3955553"></circle>
            <path d="M21.6003226,8.512436 L21.6000042,13.33473 L21.6808252,13.2764914 C22.990724,12.3636803 24.6204533,11.8327456 26.40981,11.8327456 C28.4400591,11.8327456 30.4703083,12.6335173 31.9239274,13.9560461 L32.1375735,14.1583037 L30.6518003,16.010137 C29.55362,14.825825 27.981715,14.0937049 26.4528759,14.0937049 C24.2917897,14.0937049 22.4626788,15.2888164 21.6001657,17.0602828 L21.6001657,21.7255371 C22.4626788,23.5032696 24.2917897,24.709447 26.4528759,24.709447 C27.871517,24.709447 29.3283065,24.0990737 30.4462489,23.1117051 L30.6518003,22.9222125 L32.1591064,24.6017823 C30.6302673,26.1090885 28.4554398,27.078071 26.3236782,27.078071 C24.531518,27.078071 22.9026255,26.5279298 21.5998331,25.5847156 L21.6003226,30.3983806 L21.2471325,30.3983806 L21.2471325,8.512436 L21.6003226,8.512436 Z M17.8942786,8.39273 L17.8942786,30.2786746 L17.5410885,30.2786746 L17.5410042,20.0781258 L14.5806891,14.4691451 L8.03038392,26.9599357 L6.63200416,26.9599357 L13.8236715,13.2705339 L13.8236715,13.2600197 L14.5806891,11.8511258 L15.3061643,13.2179632 L17.5410042,17.4821258 L17.5410885,8.39273 L17.8942786,8.39273 Z M19.6812347,10.6304306 L19.6812347,28.9863842 L19.3280446,28.9863842 L19.3280446,10.6304306 L19.6812347,10.6304306 Z" id="Combined-Shape" fill="#202020" fill-rule="nonzero"></path>
        </g>
    </g>
</svg>