<?xml version="1.0" encoding="UTF-8"?>
<svg width="210px" height="50px" viewBox="0 0 210 50" version="1.1" xmlns="http://www.w3.org/2000/svg" xmlns:xlink="http://www.w3.org/1999/xlink">
    <title>Logo 200x50 white</title>
    <g id="Logo-200x50-white" stroke="none" stroke-width="1" fill="none" fill-rule="evenodd">
        <g id="Logo-200x50" transform="translate(0.000000, 5.500000)">
            <path d="M53.2817126,27.3517737 L55.7374728,20.7067757 L60.0822792,20.7067757 L62.4935912,27.3517737 L64.5826541,27.3517737 L58.7932829,11.3615526 L57.0486931,11.3615526 L51.1815376,27.3517737 L53.2817126,27.3517737 Z M59.4488931,18.9732979 L56.3708589,18.9732979 L57.915432,14.7284998 L59.4488931,18.9732979 Z M67.7273606,27.3517737 L67.7273606,19.7733646 C67.8310729,19.5363078 68.0125695,19.2881389 68.2718504,19.0288581 C68.7237399,18.5991927 69.2460056,18.3843599 69.8386476,18.3843599 C70.4386976,18.3843599 70.9720753,18.6121567 71.4387809,19.0677502 C71.9054864,19.5233437 72.1388392,20.0956136 72.1388392,20.7845599 L72.1388392,20.7845599 L72.1388392,27.3517737 L74.1390058,27.3517737 L74.1390058,20.6956636 C74.1241898,19.5622359 73.7241565,18.6028967 72.9389059,17.8176461 C72.1536553,17.0323955 71.1202358,16.6397702 69.8386476,16.6397702 C68.771892,16.6397702 68.0681297,16.8249708 67.7273606,17.195372 L67.7273606,17.195372 L65.7160819,17.195372 L65.7160819,27.3517737 L67.7273606,27.3517737 Z M81.8174233,27.6184626 C83.4397807,27.6184626 84.6472887,26.9369243 85.4399474,25.5738478 L85.4399474,25.5738478 L85.4399474,27.3517737 L87.451226,27.3517737 L87.451226,11.3615526 L85.4399474,11.3615526 L85.4399474,18.3843599 C84.6472887,17.0360995 83.4397807,16.3619692 81.8174233,16.3619692 C80.209882,16.3619692 78.8486575,16.9175711 77.7337498,18.0287748 C76.6188421,19.1399785 76.0613882,20.4623108 76.0613882,21.9957719 C76.0613882,23.514417 76.6188421,24.8311933 77.7337498,25.946101 C78.8486575,27.0610087 80.209882,27.6184626 81.8174233,27.6184626 Z M81.8174233,25.8183126 C80.81734,25.8183126 79.9506011,25.4516154 79.2172067,24.718221 C78.4838123,23.9848265 78.1171151,23.0773435 78.1171151,21.9957719 C78.1171151,20.9067923 78.4838123,19.9919013 79.2172067,19.2510988 C79.9506011,18.5102964 80.81734,18.1398951 81.8174233,18.1398951 C82.8100986,18.1398951 83.6805415,18.5177044 84.428752,19.2733229 C84.9621298,19.8067007 85.2991949,20.4400868 85.4399474,21.1734812 L85.4399474,21.1734812 L85.4399474,22.7958386 C85.2991949,23.529233 84.9621298,24.1626191 84.428752,24.6959969 C83.6805415,25.4442074 82.8100986,25.8183126 81.8174233,25.8183126 Z M91.3071028,27.3517737 L91.3071028,22.017996 C91.3071028,21.1290331 91.5589757,20.3900826 92.0627213,19.8011446 C92.566467,19.2122067 93.2776374,18.8473615 94.1962324,18.706609 L94.1962324,18.706609 L93.2183732,16.9842433 C92.2405139,17.2953803 91.6034238,17.8472782 91.3071028,18.6399368 L91.3071028,18.6399368 L91.3071028,17.195372 L89.2958242,17.195372 L89.2958242,27.3517737 L91.3071028,27.3517737 Z M101.107919,27.6184626 C102.730277,27.6184626 104.104465,27.0517487 105.230485,25.918321 C105.600886,25.5553277 105.926839,25.1367744 106.208344,24.6626608 L106.208344,24.6626608 L104.319298,23.9959386 C104.022977,24.3589318 103.82296,24.5922846 103.719248,24.6959969 C102.971038,25.4442074 102.100595,25.8183126 101.107919,25.8183126 C100.107836,25.8183126 99.2410972,25.4516154 98.5077027,24.718221 C97.7743083,23.9848265 97.4076111,23.0773435 97.4076111,21.9957719 L97.4076111,21.9957719 L97.4076111,21.9624358 L106.686162,21.9624358 C106.686162,20.3326704 106.200936,19.0288581 105.230485,18.0509988 C104.104465,16.9249791 102.730277,16.3619692 101.107919,16.3619692 C99.500378,16.3619692 98.1391535,16.9175711 97.0242458,18.0287748 C95.9093381,19.1399785 95.3518843,20.4623108 95.3518843,21.9957719 C95.3518843,23.514417 95.9093381,24.8311933 97.0242458,25.946101 C98.1391535,27.0610087 99.500378,27.6184626 101.107919,27.6184626 Z M104.419306,20.206734 L97.7631963,20.206734 C98.2521259,18.8288414 99.3670336,18.1398951 101.107919,18.1398951 C102.841397,18.1398951 103.945193,18.8288414 104.419306,20.206734 L104.419306,20.206734 Z M113.420056,27.6184626 C115.042414,27.6184626 116.416602,27.0517487 117.542622,25.918321 C117.913023,25.5553277 118.238976,25.1367744 118.520481,24.6626608 L118.520481,24.6626608 L116.631435,23.9959386 C116.335114,24.3589318 116.135097,24.5922846 116.031385,24.6959969 C115.283174,25.4442074 114.412732,25.8183126 113.420056,25.8183126 C112.419973,25.8183126 111.553234,25.4516154 110.81984,24.718221 C110.086445,23.9848265 109.719748,23.0773435 109.719748,21.9957719 L109.719748,21.9957719 L109.719748,21.9624358 L118.998299,21.9624358 C118.998299,20.3326704 118.513073,19.0288581 117.542622,18.0509988 C116.416602,16.9249791 115.042414,16.3619692 113.420056,16.3619692 C111.812515,16.3619692 110.45129,16.9175711 109.336383,18.0287748 C108.221475,19.1399785 107.664021,20.4623108 107.664021,21.9957719 C107.664021,23.514417 108.221475,24.8311933 109.336383,25.946101 C110.45129,27.0610087 111.812515,27.6184626 113.420056,27.6184626 Z M116.731443,20.206734 L110.075333,20.206734 C110.564263,18.8288414 111.67917,18.1398951 113.420056,18.1398951 C115.153534,18.1398951 116.25733,18.8288414 116.731443,20.206734 L116.731443,20.206734 Z M125.976658,27.6184626 C127.599015,27.6184626 128.806523,26.9369243 129.599182,25.5738478 L129.599182,25.5738478 L129.599182,27.3517737 L131.610461,27.3517737 L131.610461,17.195372 L129.599182,17.195372 L129.599182,18.3843599 C128.806523,17.0360995 127.599015,16.3619692 125.976658,16.3619692 C124.369117,16.3619692 123.007892,16.9175711 121.892984,18.0287748 C120.778077,19.1399785 120.220623,20.4623108 120.220623,21.9957719 C120.220623,23.514417 120.778077,24.8311933 121.892984,25.946101 C123.007892,27.0610087 124.369117,27.6184626 125.976658,27.6184626 Z M125.976658,25.8183126 C124.976575,25.8183126 124.109836,25.4516154 123.376441,24.718221 C122.643047,23.9848265 122.27635,23.0773435 122.27635,21.9957719 C122.27635,20.9067923 122.643047,19.9919013 123.376441,19.2510988 C124.109836,18.5102964 124.976575,18.1398951 125.976658,18.1398951 C126.969333,18.1398951 127.839776,18.5177044 128.587987,19.2733229 C129.121364,19.8067007 129.458429,20.4400868 129.599182,21.1734812 L129.599182,21.1734812 L129.599182,22.7958386 C129.458429,23.529233 129.121364,24.1626191 128.587987,24.6959969 C127.839776,25.4442074 126.969333,25.8183126 125.976658,25.8183126 Z M147.367329,27.5295663 C149.530472,27.5295663 151.512119,26.7109796 153.312269,25.0738062 L153.312269,25.0738062 L151.912152,23.829258 C150.445363,25.1256623 148.930422,25.7738645 147.367329,25.7738645 C145.663483,25.7738645 144.191138,25.1552944 142.950294,23.9181543 C141.70945,22.6810142 141.089028,21.1586652 141.089028,19.3511072 C141.089028,17.5583652 141.70945,16.0415722 142.950294,14.800728 C144.191138,13.5598839 145.663483,12.9394619 147.367329,12.9394619 C148.930422,12.9394619 150.445363,13.587664 151.912152,14.8840683 L151.912152,14.8840683 L153.312269,13.6395202 C151.512119,11.9949387 149.530472,11.172648 147.367329,11.172648 C145.041209,11.172648 143.076231,11.9801227 141.472393,13.595072 C139.868556,15.2100214 139.066637,17.1286998 139.066637,19.3511072 C139.066637,21.5957386 139.868556,23.519973 141.472393,25.1238103 C143.076231,26.7276476 145.041209,27.5295663 147.367329,27.5295663 Z M160.590653,27.6184626 C162.21301,27.6184626 163.420518,26.9369243 164.213177,25.5738478 L164.213177,25.5738478 L164.213177,27.3517737 L166.224456,27.3517737 L166.224456,17.195372 L164.213177,17.195372 L164.213177,18.3843599 C163.420518,17.0360995 162.21301,16.3619692 160.590653,16.3619692 C158.983112,16.3619692 157.621887,16.9175711 156.506979,18.0287748 C155.392072,19.1399785 154.834618,20.4623108 154.834618,21.9957719 C154.834618,23.514417 155.392072,24.8311933 156.506979,25.946101 C157.621887,27.0610087 158.983112,27.6184626 160.590653,27.6184626 Z M160.590653,25.8183126 C159.59057,25.8183126 158.723831,25.4516154 157.990436,24.718221 C157.257042,23.9848265 156.890345,23.0773435 156.890345,21.9957719 C156.890345,20.9067923 157.257042,19.9919013 157.990436,19.2510988 C158.723831,18.5102964 159.59057,18.1398951 160.590653,18.1398951 C161.583328,18.1398951 162.453771,18.5177044 163.201982,19.2733229 C163.735359,19.8067007 164.072424,20.4400868 164.213177,21.1734812 L164.213177,21.1734812 L164.213177,22.7958386 C164.072424,23.529233 163.735359,24.1626191 163.201982,24.6959969 C162.453771,25.4442074 161.583328,25.8183126 160.590653,25.8183126 Z M171.458225,27.3517737 L171.458225,18.9288498 L173.347271,18.9288498 L173.347271,17.195372 L171.458225,17.195372 L171.458225,13.2505989 L169.458058,13.2505989 L169.458058,17.195372 L167.569012,17.195372 L167.569012,18.9288498 L169.458058,18.9288498 L169.458058,27.3517737 L171.458225,27.3517737 Z M180.281182,27.6184626 C181.90354,27.6184626 183.111048,26.9369243 183.903706,25.5738478 L183.903706,25.5738478 L183.903706,27.3517737 L185.914985,27.3517737 L185.914985,17.195372 L183.903706,17.195372 L183.903706,18.3843599 C183.111048,17.0360995 181.90354,16.3619692 180.281182,16.3619692 C178.673641,16.3619692 177.312416,16.9175711 176.197509,18.0287748 C175.082601,19.1399785 174.525147,20.4623108 174.525147,21.9957719 C174.525147,23.514417 175.082601,24.8311933 176.197509,25.946101 C177.312416,27.0610087 178.673641,27.6184626 180.281182,27.6184626 Z M180.281182,25.8183126 C179.281099,25.8183126 178.41436,25.4516154 177.680966,24.718221 C176.947571,23.9848265 176.580874,23.0773435 176.580874,21.9957719 C176.580874,20.9067923 176.947571,19.9919013 177.680966,19.2510988 C178.41436,18.5102964 179.281099,18.1398951 180.281182,18.1398951 C181.273858,18.1398951 182.1443,18.5177044 182.892511,19.2733229 C183.425889,19.8067007 183.762954,20.4400868 183.903706,21.1734812 L183.903706,21.1734812 L183.903706,22.7958386 C183.762954,23.529233 183.425889,24.1626191 182.892511,24.6959969 C182.1443,25.4442074 181.273858,25.8183126 180.281182,25.8183126 Z M190.015327,27.3517737 L190.015327,19.7733646 C190.119039,19.5363078 190.300535,19.2881389 190.559816,19.0288581 C191.011706,18.5991927 191.533972,18.3843599 192.126614,18.3843599 C192.726664,18.3843599 193.260041,18.6121567 193.726747,19.0677502 C194.193452,19.5233437 194.426805,20.0956136 194.426805,20.7845599 L194.426805,20.7845599 L194.426805,27.3517737 L196.426972,27.3517737 L196.426972,20.6956636 C196.412156,19.5622359 196.012122,18.6028967 195.226872,17.8176461 C194.441621,17.0323955 193.408202,16.6397702 192.126614,16.6397702 C191.059858,16.6397702 190.356096,16.8249708 190.015327,17.195372 L190.015327,17.195372 L188.004048,17.195372 L188.004048,27.3517737 L190.015327,27.3517737 Z M204.105389,27.6184626 C205.727747,27.6184626 206.935255,26.9369243 207.727913,25.5738478 L207.727913,25.5738478 L207.727913,27.3517737 L209.739192,27.3517737 L209.739192,17.195372 L207.727913,17.195372 L207.727913,18.3843599 C206.935255,17.0360995 205.727747,16.3619692 204.105389,16.3619692 C202.497848,16.3619692 201.136623,16.9175711 200.021716,18.0287748 C198.906808,19.1399785 198.349354,20.4623108 198.349354,21.9957719 C198.349354,23.514417 198.906808,24.8311933 200.021716,25.946101 C201.136623,27.0610087 202.497848,27.6184626 204.105389,27.6184626 Z M204.105389,25.8183126 C203.105306,25.8183126 202.238567,25.4516154 201.505173,24.718221 C200.771778,23.9848265 200.405081,23.0773435 200.405081,21.9957719 C200.405081,20.9067923 200.771778,19.9919013 201.505173,19.2510988 C202.238567,18.5102964 203.105306,18.1398951 204.105389,18.1398951 C205.098065,18.1398951 205.968508,18.5177044 206.716718,19.2733229 C207.250096,19.8067007 207.587161,20.4400868 207.727913,21.1734812 L207.727913,21.1734812 L207.727913,22.7958386 C207.587161,23.529233 207.250096,24.1626191 206.716718,24.6959969 C205.968508,25.4442074 205.098065,25.8183126 204.105389,25.8183126 Z" id="AndreeaCatana." fill="#FFFFFF" fill-rule="nonzero"></path>
            <circle id="Oval" fill="#FFFFFF" cx="19.3955553" cy="19.3955553" r="19.3955553"></circle>
            <path d="M21.6003226,8.512436 L21.6000042,13.33473 L21.6808252,13.2764914 C22.990724,12.3636803 24.6204533,11.8327456 26.40981,11.8327456 C28.4400591,11.8327456 30.4703083,12.6335173 31.9239274,13.9560461 L32.1375735,14.1583037 L30.6518003,16.010137 C29.55362,14.825825 27.981715,14.0937049 26.4528759,14.0937049 C24.2917897,14.0937049 22.4626788,15.2888164 21.6001657,17.0602828 L21.6001657,21.7255371 C22.4626788,23.5032696 24.2917897,24.709447 26.4528759,24.709447 C27.871517,24.709447 29.3283065,24.0990737 30.4462489,23.1117051 L30.6518003,22.9222125 L32.1591064,24.6017823 C30.6302673,26.1090885 28.4554398,27.078071 26.3236782,27.078071 C24.531518,27.078071 22.9026255,26.5279298 21.5998331,25.5847156 L21.6003226,30.3983806 L21.2471325,30.3983806 L21.2471325,8.512436 L21.6003226,8.512436 Z M17.8942786,8.39273 L17.8942786,30.2786746 L17.5410885,30.2786746 L17.5410042,20.0781258 L14.5806891,14.4691451 L8.03038392,26.9599357 L6.63200416,26.9599357 L13.8236715,13.2705339 L13.8236715,13.2600197 L14.5806891,11.8511258 L15.3061643,13.2179632 L17.5410042,17.4821258 L17.5410885,8.39273 L17.8942786,8.39273 Z M19.6812347,10.6304306 L19.6812347,28.9863842 L19.3280446,28.9863842 L19.3280446,10.6304306 L19.6812347,10.6304306 Z" id="Combined-Shape" fill="#202020" fill-rule="nonzero"></path>
        </g>
    </g>
</svg>